<svg xmlns="http://www.w3.org/2000/svg" xml:space="preserve" viewBox="0 0 500 421" enable-background="new 0 0 500 421" id="Ladyplayingwithpetdog">
  <path d="m12.855 216.953 463.939-5.367s36.5-3.163 17.947 25.99c-18.551 29.158-117.209 40.659-173.36 65.049-57.992 25.186-95.07-12.01-154.262-14.777-59.189-2.771-130.165-20.141-147.295-38.861-23.301-25.466-26.625-31.22-6.969-32.034z" fill="#ffccdb" class="colorcce9ff svgShape"></path>
  <path d="M308.145 237.846c-7.179.137-23.685 1.656-30.798-.965-5.183-1.916-17.258-5.403-26.032-7.21-3.268-.669-6.074-1.109-7.901-1.148-4.794-.098-9.708-4.388-13.217-7.293-1.418-1.178-2.603-2.124-3.46-2.472-.837-.345-1.464-.751-1.853-1.163-.287-.303-.445-.61-.461-.892-.036-.688.791-1.23 2.659-1.23.52 0 1.055.024 1.597.067 3.258.242 6.736 1.096 8.692 1.039 2.275-.072 8.49 5.386 9.733 5.661.527.117 2.091.584 4.103.729 2.728.203 6.283-.179 9.222-2.799 1.536-1.371 3.742-2.979 6.074-4.557 5.365-3.63 11.4-7.104 11.535-7.18 0-.004.002-.004.002-.004s0 .004.003.009V208.447l.013.032c.069.184.348.907.868 1.715.34.53.781 1.095 1.336 1.569a4.556 4.556 0 0 0 1.922 1.018c.402.097 1.042.168 1.861.231.156.013.317.022.486.035 1.006.069 2.222.125 3.565.191 1.078.053 2.237.111 3.43.185 5.167.313 10.962.9 13.583 2.535a59.565 59.565 0 0 1 3.962 2.696l.005.004c3.499 2.6 6.905 5.776 7.581 8.401.074.289.115.57.12.844.07 3.729-1.451 9.805-8.63 9.943z" fill="#f42a64" class="color2a94f4 svgShape"></path>
  <path d="M278.067 208.483c.069.189.338.904.857 1.712.34.53.781 1.095 1.336 1.569a4.556 4.556 0 0 0 1.922 1.018c.481.111 1.298.194 2.347.266l-19.262 10.371-25.205-.616-9.864-1.573-1.873-.299s-4.899-3.41-6.004-4.124c.747-.026 1.456-.06 2.104-.104-.036-.688.791-1.23 2.659-1.23.52 0 1.055.024 1.597.067 1.779-1.826 10.094-9.805 10.094-9.805l39.282 2.691.01.057z" fill="#f42a64" class="color2a94f4 svgShape"></path>
  <path d="M291.524 213.424c-7.197 1.986-13.207 7.435-13.207 7.435l-9.014 1.623 14.74-9.469c.156.013.317.022.486.035 1.006.069 2.222.125 3.565.191 1.078.052 2.237.111 3.43.185z" fill="#f42a64" class="color2a94f4 svgShape"></path>
  <path d="M280.534 217.238c-.297.071-.612.155-.937.241-3.75.339-19.587 9.184-19.587 9.184l-.026.013c-2.436.864-5.451 1.897-8.664 3.002-8.055 2.731-17.34 5.844-21.543 7.616-7.742 3.239-26.521 1.725-29.423.551-2.109-.864-3.75-4.657-4.161-7.97-.141-1.217-.125-2.378.1-3.283.494-2.051 3.028-4.515 6.099-6.369 1.984-1.204 4.203-2.167 6.255-2.603 2.818-.612 7.858-.653 12.129-.765l1.543-.044a73.055 73.055 0 0 0 2.109-.113c1.868-.113 3.271-.311 3.765-.693.028-.015.041-.029.056-.043l.131.027 1.694.638 11.098 4.089c4.727 3.751 10.358 1.954 12.751 1.543 3.483-.594 4.374-1.642 5.265-3.042.297-.48.609-1.006 1.034-1.572a10.283 10.283 0 0 1 2.378-1.712c0-.013.013-.013.013-.013.978-.256 2.193-.226 3.893-.312.509-.028 1.019-.028 1.5-.028.453 0 .922-.042 1.4-.113.074-.014.159-.028.215-.044h.043c.691.03 1.144.057 1.144.057-.637.978.527.269.031-.013 6.324-2.576 9.099-.863 9.695-.397.054.043.097.073.113.099.013 0 .013.015.013.015s.013.014.043.028c.041.043.113.083.184.17.722.751.893 1.559-.353 1.856z" opacity=".8" fill="#ffccdb" class="colorcce9ff svgShape"></path>
  <path d="M280.703 215.214c-.031-.013-.043-.028-.043-.028s0-.015-.013-.015c.025 0 .043.015.056.043z" fill="#edd3da" class="coloreddad3 svgShape"></path>
  <path d="M259.977 226.676a699.704 699.704 0 0 1-8.664 2.995c-8.052 2.74-17.333 5.857-21.538 7.623-2.214.929-5.331 1.468-8.722 1.735-.013 0-.026.003-.041.003a67.194 67.194 0 0 1-3.202.171l-.202.006c-4.492.13-9.089-.117-12.462-.493-.008-.003-.018-.003-.031-.006-2.298-.255-4.029-.573-4.755-.865-2.117-.856-3.755-4.661-4.164-7.967-.148-1.223-.133-2.376.092-3.29.502-2.055 3.03-4.508 6.104-6.367l.003-.004c1.983-1.201 4.203-2.156 6.25-2.601 2.813-.61 7.852-.645 12.137-.762.525-.012 1.042-.03 1.536-.047h.003c.747-.026 1.456-.06 2.101-.1 1.871-.12 3.276-.318 3.773-.697.023-.017.046-.033.064-.051l.115.038 1.707.635 11.088 4.088c3.931 3.108 8.477 2.397 11.274 1.832.576-.115 1.075-.226 1.482-.296.878-.151 1.595-.327 2.181-.533l3.871 4.953z" fill="#f42a64" class="color2a94f4 svgShape"></path>
  <path d="M270.355 222.37s18.318-3.306 22.597-1.439c4.284 1.861 7.458 6.143 11.671 5.729 4.213-.415.054-2.337-2.951-3.139-3.005-.797-5.344-4.423-13.288-4.163-7.947.262-13.276 1.605-13.276 1.605s-3.563.929-4.753 1.407z" fill="#8c0e32" class="color0e538c svgShape"></path>
  <path d="M229.504 220.657s-1.559-1.483-2.905-1.899c-1.346-.418-3.499-2.497-1.052-3.114 3.069-.777 8.648 1.175 10.166 1.142 1.52-.035 4.287.649 6.421 2.156 2.14 1.507 4.773 3.694 6.46 3.652 0 0-.107.408-1.213.371-1.103-.035-17.271-1.811-17.271-1.811l-.606-.497z" opacity=".8" fill="#ffccdb" class="colorcce9ff svgShape"></path>
  <path d="M256.831 221.367s-3.097 2.738-15.111 1.563c-12.014-1.172-17.952-3.139-24.235-.635-6.286 2.5-5.457 3.192-8.63 3.192-3.182 0 2.001-3.938 8.768-5.11 6.765-1.174 23.544 2.07 25.477 2.07 1.935 0 9.429.736 13.731-1.08z" fill="#8c0e32" class="color0e538c svgShape"></path>
  <path d="M262.096 229.389s-19.577 8.136-41.043 9.64c-.013 0-.026.003-.041.003-1.06.073-2.13.13-3.202.171l-.202.006c-4.162.15-8.357.015-12.462-.493-.008-.003-.018-.003-.031-.006 0 0 35.09-12.605 47.326-16.158 1.692-.488 2.946-.807 3.611-.894l.051.065 3.872 4.953 2.121 2.713z" fill="#f42a64" class="color2a94f4 svgShape"></path>
  <path d="M270.839 215.469c.497.282-.668.99-.031.013l.015-.013h.016zM279.597 217.479c.325-.086.64-.17.937-.241 1.246-.297 1.075-1.105.353-1.854.566.481 1.797 1.828-1.29 2.095z" fill="#edd3da" class="coloreddad3 svgShape"></path>
  <path d="M191.681 171.593s-2.905-.328-4.914-.664c-1.556-.26-5.416.065-6.393.754-.978.688-4.067 5.498-4.656 5.789-.591.293.31.981 1.346.643 0 0 .97 2.119 3.317 1.341 2.347-.78 3.934-2.497 5.165-2.795 1.231-.298 8.397-1.792 8.397-1.792s-.417-3.779-2.262-3.276zM245.721 209.375s-2.905-.33-4.917-.665c-1.556-.262-5.413.065-6.393.754-.975.688-4.067 5.498-4.653 5.789-.594.293.307.98 1.344.644 0 0 .97 2.118 3.32 1.341 2.347-.781 3.931-2.498 5.162-2.796 1.231-.298 8.4-1.793 8.4-1.793s-.418-3.779-2.263-3.274z" fill="#f19eb6" class="colorf1b99e svgShape"></path>
  <path d="M243.496 150.204a30.96 30.96 0 0 0-1.083.756c.02-.221.028-.339.028-.339l1.055-.417zM249.191 147.955s-.002.053-.002.15c-.148.004-.289.011-.425.02l.427-.17z" fill="#f42a64" class="color2a94f4 svgShape"></path>
  <path d="M253.424 114.236s12.682-4.539 15.39 12.653c3.056 17.137 5.999 38.032 5.999 38.032l-13.071 2.06c0 .001 3.046-43.191-8.318-52.745z" fill="#8c0e32" class="color0e538c svgShape"></path>
  <path d="M265.346 158.385s-.865 5.797-1.103 9.975c-.269 4.738-.52 9.409-.571 10.457-.097 2.128 3.12 5.757 1.968 7.127-1.059 1.259-14.758 23.687-23.905 23.687 0 0-.013.008-.013.015-1.758-.623-3.094-1.248-3.888-1.781-1.085-.725-1.666-1.232-1.666-1.232s5.559-11.946 6.053-13.749c.261-.933.056-4.454-.212-7.703-.253-3.021-.561-5.811-.614-6.076-.107-.542-4.732-5.347-5.029-9.254-.046-.575.097-1.449.371-2.52a316.544 316.544 0 0 0-4.515 3.232c-.947.692-3.463 2.705-6.191 4.721-3.583 2.646-7.532 5.302-8.763 4.98-4.819-1.273-26.101-4.119-26.759-4.183-.655-.063-1.973-6.267-.399-6.935 1.574-.668 22.61 2.435 25.871.952 2.334-1.059 10.361-7.57 14.691-11.144 1.195-.987 2.111-1.751 2.544-2.111 1.239-1.029 5.198-5.45 9.199-8.467.361-.272.724-.532 1.083-.777l4.648-1.892c3.737-2.213 9.467-4.849 13.45-3.17 4.927 2.079 10.734 6.233 13.327 8.817.758.754 1.239 1.376 1.346 1.772v.003c.125.48-.113 2.038-.548 4.08-1.139 5.375-3.624 14.087-4.3 15.187-.901 1.473-3.025 14.325-3.371 16.727l1.955 1.411.681.491.392.284c.394 2.044 1.799 4.21 2.293 6.459.863 3.938 7.174 9.714 7.174 9.714-10.227 5.919-22.582 5.766-31.512 4.085a51.789 51.789 0 0 1-5.42-1.305c-.481-.351-.781-.601-.704-.632.299-.118 17.384-22.764 18.446-24.023 1.152-1.372 3.396-4.662 3.494-6.79.049-1.048.302-5.719.571-10.457.236-4.178 1.103-9.975 1.103-9.975.259-2.097.568-7.032 5.201-7.401" fill="#700b28" class="color0b4870 svgShape"></path>
  <path d="M262.375 142.942c-3.32 11.043-11.023 17.998-13.629 18.773-2.606.771-2.608-12.702-.855-14.739.463-.543.699-1.423.794-2.422.179-1.888-.154-4.198-.376-5.435-.097-.548-.172-.889-.172-.889s10.629-13.276 10.604-5.141c-.029 8.133 3.634 9.853 3.634 9.853z" fill="#f19eb6" class="colorf1b99e svgShape"></path>
  <path d="M255.331 137.854c-.044.079-2.808 5.077-6.353 6.385.161-1.688-.141-3.752-.338-4.858l6.691-1.527z" fill="#ff3c74" class="colorc48a6f svgShape"></path>
  <path d="M240.481 113.956s-1.935 13.527.84 20.299c4.451 10.867 8.139 8.271 13.117 4.418 7.192-5.561 2.662-24.411 2.662-24.411l-16.619-.306z" fill="#f19eb6" class="colorf1b99e svgShape"></path>
  <path d="M238.04 124.681s3.496 5.091 10.325 2.638c6.777-2.435 6.939 8.842 8.313 9.508 1.377.668 5.352-14.795 2.808-19.111s-7.527-9.968-14.143-7.406c-7.239 2.806-9.297 8.179-7.303 14.371z" fill="#8c0e32" class="color0e538c svgShape"></path>
  <path d="M252.966 128.829c-.228-1.796 2.641-3.092 3.322-1.617.681 1.473-.527 6.02-1.986 5.203-1.461-.814-1.336-3.586-1.336-3.586z" fill="#ee86a4" class="coloreea886 svgShape"></path>
  <path d="M143.384 234.579c2.964-.017 10.565-.523 11.052 3.056l5.984-.04c1.868-3.382-7.55-4.425-9.301-4.638l.919-1.78c-2.242.233-4.08.499-5.475.848a18.713 18.713 0 0 1-3.179 2.554zM180.163 232.013c.09.645.197 1.266.322 1.842 2.821.847 4.044 2.232 4.397 3.378 1.994.093 4.328.115 4.894-.243 1.026-.645.919-4.205-5.147-5.523.264-1.877.857-6.403.857-6.403a13.453 13.453 0 0 1-4.466 4.014 59.579 59.579 0 0 1-.857 2.935z" fill-rule="evenodd" clip-rule="evenodd" fill="#ff5586" class="colorffbe55 svgShape"></path>
  <path d="M200.135 189.867c-2.416 3.008-8.541 5.006-11.842 5.899 0 0 1.94 11.442 2.554 15.287.363 2.287.256 7.927-2.9 12.387a13.4 13.4 0 0 1-4.466 4.013 57.322 57.322 0 0 1-.855 2.935 40.072 40.072 0 0 1-.555 1.61c.307.073.602.151.878.234 2.818.846 4.044 2.232 4.397 3.377.269.868.038 1.6-.374 1.858-1.031.65-7.942.043-7.942.043-1.208-1.171-1.745-4.686-1.979-8.094-.2.024-.404.047-.612.065-2.088.184-4.085.344-5.984.489-2.142.162-4.164.305-6.053.436h-.005c-.033.005-.067.005-.1.009-3.711.26-6.918.488-9.562.76a57.47 57.47 0 0 0-3.588.467c-.699.115-1.328.242-1.886.381a18.788 18.788 0 0 1-3.179 2.553c2.961-.017 10.563-.523 11.052 3.057.023.182.031.378.018.582 0 0-7.415.15-13.854-.041-1.006-.03-1.991-.067-2.92-.115 0 0-.415-.087-.901-.34-.87-.452-1.978-1.431-1.387-3.395-5.748-4.411-4-10.043-4-10.043s-.33-1.305.886-3.11c.077-.112.159-.226.248-.343.589-.772 1.459-1.621 2.751-2.486 2.083-1.397 5.252-2.846 10.069-4.099 1.38-.359 2.705-.715 3.98-1.07a125.707 125.707 0 0 0 5.667-1.698 69.376 69.376 0 0 0 3.872-1.379c1.72-.674 3.286-1.384 4.702-2.156 4.407-2.399 7.322-5.372 8.702-9.599 1.211 2.2 2.027 3.791 3.087 3.997 1.482.288 6.12-4.889 3.916-10.895-1.533-4.183-2.897-5.797-3.57-6.872 0 0 .873-1.417 1.241-1.93a9.99 9.99 0 0 1 1.008-1.189c1.044-1.044 2.605-2.102 4.679-2.161.281-.01.553-.012.816-.01.141 0 .274.003.41.006 2.79.073 4.732.656 5.365.871a22.99 22.99 0 0 1 2.472-1.991c1.723-1.183 3.657-2.056 5.447-1.832l2.367 1.14c2.508 2.615.791 8.827-2.07 12.392z" fill-rule="evenodd" clip-rule="evenodd" fill="#fcb1c7" class="colorfcd2b1 svgShape"></path>
  <path d="M137.974 218.344c-1.292.865-2.163 1.714-2.751 2.486a7.85 7.85 0 0 0-.248.343c-1.011-1.312-3.194-4.194-3.358-4.47-.988-1.687-1.807-3.502-2.296-5.418-.481-1.887-.886-4.626-.2-6.439.113-.302.34-.544.632-.63.627-.182 1.09.412 1.308.995.77 2.057 1.021 4.21 1.735 6.277.98 2.835 2.969 5.047 5.178 6.856z" fill="#ff5586" class="colorffbe55 svgShape"></path>
  <path d="M202.203 177.478c-.197-.301-.376-.567-.525-.795-1.042-1.619-1.81-.658-1.81-.658l-.824.795c0-.001.182 3.155 3.159.658z" fill="#700b28" class="color0b4870 svgShape"></path>
  <path d="M185.057 184.434c.389.227.909.063 1.157-.365.253-.43.143-.961-.246-1.188-.387-.228-.906-.064-1.159.365-.248.429-.138.961.248 1.188z" fill-rule="evenodd" clip-rule="evenodd" fill="#262525" class="color262525 svgShape"></path>
  <path d="M185.438 184.553a.762.762 0 0 1-.389-.105c-.394-.231-.509-.775-.253-1.212.256-.436.786-.604 1.182-.37.192.112.323.3.371.528a.971.971 0 0 1-.118.682.967.967 0 0 1-.54.437.791.791 0 0 1-.253.04z" fill="#8c0e32" class="color0e538c svgShape"></path>
  <path d="M166.018 218.366c-4.092 2.631-7.361 2.12-9.931 0-2.567-2.124-1.167-4.084-3.035-4.589a2.246 2.246 0 0 1-1.029-.602c5.787-1.606 10.54-3.215 14.241-5.232.818 1.891 3.211 8.197-.246 10.423z" fill="#ff5586" class="colorffbe55 svgShape"></path>
  <path d="M179.501 189.115h4.681v16.442h-4.681z" transform="rotate(-83.252 181.845 197.331)" fill="#f42a64" class="color2a94f4 svgShape"></path>
  <path d="M179.086 182.52c.345.074.676.234.983.497 2.426 2.089 3.322 5.643 3.399 8.934.085 3.496-.617 7.972-2.557 11.112-.76 1.234-1.449 2.263-2.71 1.563-.842-.465-1.479-1.242-2.28-1.76-1.298-.836-2.557-2.152-2.516-3.907.049-2.146.266-4.31.233-6.479-.031-2.126-.225-5 .875-7.018.862-1.584 2.879-3.298 4.573-2.942z" fill="#ff5586" class="colorffbe55 svgShape"></path>
  <path d="M279.382 160.863a11.015 11.015 0 0 1-.215 1.733c-.507 2.286-1.106 7.303-1.577 10.414-.497 3.268-1.728 11.214-2.483 13.204-.187.486-1.915 2.318-4.423 4.812-6.34 6.306-17.663 16.841-21.653 20.542-.911.845-1.441 1.333-1.441 1.333l-.694-.444a89.292 89.292 0 0 1-3.161-2.106c-.044-.031-.084-.061-.125-.088-.481-.351-.781-.601-.704-.632.299-.118 17.384-22.764 18.446-24.023 1.152-1.372 2.222-4.662 2.319-6.79.049-1.048.302-5.719.571-10.457.238-4.178 1.103-9.975 1.103-9.975.261-2.097 1.743-7.032 6.376-7.401.722-.06 1.546-.007 2.493.185.246.049.481.112.706.187 3.927 1.314 4.634 6.376 4.462 9.506z" fill="#700b28" class="color0b4870 svgShape"></path>
  <path d="M265.612 180.375c-.09 2.024-2.224 5.15-3.32 6.452-1.006 1.197-17.248 22.723-17.53 22.835-.074.029.21.268.668.601a41.222 41.222 0 0 1-1.797-.585c0-.008.148.13.154.127.284-.112 16.38-21.78 17.389-22.977 1.095-1.303 3.227-4.428 3.322-6.452.046-.996.286-5.437.542-9.939.223-3.971 1.049-9.481 1.049-9.481.264-2.15.586-7.438 6.058-7.035-4.405.35-4.699 5.04-4.942 7.035" fill="#8c0e32" class="color0e538c svgShape"></path>
  <path d="M370.838 181.61c-.704-1.95-2.053-3.594-3.007-5.434-.957-1.842-1.492-4.135-.489-5.949.939-1.698 3.033-2.632 3.637-4.475.655-1.999-.722-4.023-1.866-5.788-1.142-1.766-2.073-4.217-.722-5.828.456-.543 1.106-.887 1.589-1.406 1.725-1.852.63-4.826-.54-7.068 0 0-.512-1.528-2.145-1.692-1.569-.48-2.631.732-2.631.732-1.945 1.615-4.103 3.938-3.23 6.312.246.664.717 1.234.926 1.911.622 2.008-1.185 3.908-2.92 5.096-1.735 1.186-3.788 2.522-3.957 4.617-.156 1.932 1.418 3.605 1.625 5.532.225 2.063-1.157 3.971-2.749 5.301-1.592 1.327-3.473 2.321-4.876 3.848-1.403 1.529-2.242 3.874-1.236 5.688.699 1.259 2.163 2.053 2.554 3.439.671 2.366-1.553 3.599-2.262 5.453-.745 1.943.468 4.142 1.809 5.603 3.583 3.906 7.54 4.673 12.06 1.583 3.872-2.648 1.359-6.643 3.688-9.565.896-1.126 2.554-1.291 3.683-2.184 1.63-1.287 1.766-3.774 1.059-5.726z" opacity=".5" fill="#d3d3d3" class="colord3d3d3 svgShape"></path>
  <path d="M366.551 148.019a57.56 57.56 0 0 0-1.873 6.562c-.253 1.11-.494 2.218-.555 3.331-.059 1.097.077 2.237.187 3.364.256 2.259.363 4.63-.128 6.934-.246 1.149-.624 2.293-1.264 3.334a7.096 7.096 0 0 1-.533.751c-.184.229-.443.481-.594.659-.361.369-.645.829-.919 1.286a12.132 12.132 0 0 0-1.387 6.264c.044.526.105 1.055.248 1.545.059.252.148.488.248.717l.159.39c.061.145.123.289.174.435.392 1.171.586 2.387.553 3.607-.049 1.214-.279 2.452-.87 3.567-.276.562-.678 1.067-1.121 1.515-.246.203-.471.43-.75.585l-.699.438c-.804.551-1.2 1.605-1.298 2.686-.12 1.089.003 2.229.238 3.335v.003a.067.067 0 0 1-.051.081c-.033.008-.064-.01-.079-.041a9.793 9.793 0 0 1-.727-3.404 5.55 5.55 0 0 1 .269-1.801c.182-.602.571-1.157 1.055-1.597l.704-.543c.212-.138.379-.335.563-.505.328-.385.624-.8.819-1.28.433-.932.596-2 .589-3.057a9.072 9.072 0 0 0-.525-3.112l-.299-.763c-.12-.3-.223-.6-.289-.906-.161-.608-.217-1.222-.253-1.831a13.285 13.285 0 0 1 1.789-6.872c.328-.509.663-1.019 1.113-1.458.228-.244.386-.386.566-.594.174-.197.33-.408.476-.63.586-.888.973-1.927 1.236-2.998.253-1.075.389-2.186.427-3.303.041-1.115-.038-2.241-.118-3.381-.064-1.141-.159-2.284-.054-3.463.115-1.166.41-2.284.706-3.386a57.36 57.36 0 0 1 2.14-6.511.07.07 0 0 1 .09-.037.069.069 0 0 1 .037.084z" fill="#ffffff" class="colorffffff svgShape"></path>
  <path d="M318.905 181.61c.704-1.95 2.053-3.594 3.007-5.434.957-1.842 1.492-4.135.491-5.949-.939-1.698-3.036-2.632-3.64-4.475-.655-1.999.722-4.023 1.866-5.788 1.142-1.766 2.073-4.217.724-5.828-.456-.543-1.108-.887-1.592-1.406-1.722-1.852-.63-4.826.54-7.068 0 0 .512-1.528 2.145-1.692 1.569-.48 2.634.732 2.634.732 1.945 1.615 4.1 3.938 3.227 6.312-.246.664-.714 1.234-.924 1.911-.624 2.008 1.185 3.908 2.92 5.096 1.735 1.186 3.788 2.522 3.957 4.617.156 1.932-1.418 3.605-1.628 5.532-.223 2.063 1.157 3.971 2.749 5.301 1.592 1.327 3.473 2.321 4.876 3.848 1.405 1.529 2.242 3.874 1.236 5.688-.699 1.259-2.16 2.053-2.554 3.439-.671 2.366 1.556 3.599 2.263 5.453.745 1.943-.469 4.142-1.807 5.603-3.586 3.906-7.54 4.673-12.063 1.583-3.872-2.648-1.359-6.643-3.688-9.565-.896-1.126-2.554-1.291-3.683-2.184-1.627-1.287-1.76-3.774-1.056-5.726z" opacity=".5" fill="#d3d3d3" class="colord3d3d3 svgShape"></path>
  <path d="M323.192 148.019a56.967 56.967 0 0 1 1.876 6.562c.251 1.11.491 2.218.555 3.331.056 1.097-.079 2.237-.189 3.364-.256 2.259-.363 4.63.128 6.934.246 1.149.625 2.293 1.264 3.334.161.261.338.511.535.751.184.229.44.481.591.659.361.369.645.829.921 1.286a12.162 12.162 0 0 1 1.387 6.264c-.046.526-.105 1.055-.251 1.545a4.326 4.326 0 0 1-.246.717l-.161.39c-.061.145-.123.289-.172.435a10.394 10.394 0 0 0-.555 3.607c.051 1.214.282 2.452.87 3.567.276.562.678 1.067 1.123 1.515.246.203.468.43.75.585l.696.438c.804.551 1.2 1.605 1.298 2.686.12 1.089-.003 2.229-.235 3.335l-.003.003a.067.067 0 0 0 .051.081.068.068 0 0 0 .079-.041 9.793 9.793 0 0 0 .727-3.404 5.55 5.55 0 0 0-.269-1.801c-.182-.602-.571-1.157-1.055-1.597l-.701-.543c-.215-.138-.381-.335-.563-.505-.33-.385-.627-.8-.822-1.28-.432-.932-.594-2-.589-3.057a9.072 9.072 0 0 1 .525-3.112l.299-.763c.12-.3.223-.6.289-.906.161-.608.217-1.222.256-1.831a13.316 13.316 0 0 0-1.791-6.872c-.328-.509-.663-1.019-1.111-1.458-.23-.244-.386-.386-.568-.594a5.81 5.81 0 0 1-.476-.63c-.586-.888-.973-1.927-1.234-2.998a16.803 16.803 0 0 1-.428-3.303c-.043-1.115.036-2.241.115-3.381.064-1.141.159-2.284.054-3.463-.115-1.166-.407-2.284-.704-3.386a57.57 57.57 0 0 0-2.142-6.511.066.066 0 0 0-.087-.037.069.069 0 0 0-.037.084z" fill="#ffffff" class="colorffffff svgShape"></path>
  <path d="M359.098 174.34c-1.421-2.344-3.596-4.123-5.316-6.259-1.717-2.135-3.008-4.969-2.181-7.582.773-2.444 3.248-4.201 3.547-6.748.328-2.759-1.983-5.024-3.923-7.014-1.94-1.99-3.788-4.923-2.457-7.364.448-.823 1.206-1.436 1.697-2.236 1.748-2.847-.443-6.419-2.541-9.018 0 0-1.062-1.849-3.22-1.636-2.158-.213-3.22 1.636-3.22 1.636-2.101 2.6-4.292 6.171-2.542 9.018.491.799 1.246 1.413 1.697 2.236 1.328 2.44-.517 5.374-2.457 7.364-1.94 1.99-4.251 4.255-3.926 7.014.302 2.547 2.777 4.304 3.55 6.748.827 2.613-.463 5.448-2.183 7.582-1.717 2.136-3.895 3.915-5.316 6.259-1.421 2.344-1.897 5.603-.12 7.692 1.234 1.45 3.335 2.097 4.205 3.791 1.484 2.893-1.075 5.068-1.51 7.656-.461 2.712 1.687 5.245 3.801 6.789 5.664 4.127 10.99 4.091 16.045-1.093 4.328-4.438.031-8.959 2.286-13.354.87-1.692 2.974-2.339 4.205-3.789 1.776-2.089 1.299-5.348-.121-7.692z" fill="#f2f2f2" class="colorf2f2f2 svgShape"></path>
  <path d="M322.992 199.592h43.423v5.837h-43.423z" fill="#ea4a78" class="color4aacea svgShape"></path>
  <path d="M343.335 198.461c-.85-1.272 0 0-.363-1.532a7.346 7.346 0 0 1-.12-2.402c.079-.827.438-1.651.95-2.346l.77-.886c.241-.235.404-.534.599-.801.325-.585.602-1.202.729-1.872.317-1.321.251-2.747-.033-4.116a12.06 12.06 0 0 0-1.492-3.897l-.586-.911a7.707 7.707 0 0 1-.612-1.097c-.368-.749-.599-1.529-.806-2.307a17.596 17.596 0 0 1 .532-9.373c.289-.745.591-1.492 1.06-2.177.233-.376.399-.603.581-.919.169-.301.323-.613.453-.939.53-1.304.758-2.751.816-4.206a22.143 22.143 0 0 0-.305-4.392c-.236-1.455-.635-2.895-1.031-4.35-.379-1.463-.799-2.919-.97-4.475-.156-1.54-.067-3.067.028-4.57a76.212 76.212 0 0 1 1.08-8.995.092.092 0 0 1 .105-.074.09.09 0 0 1 .072.101 76.092 76.092 0 0 0-.719 8.991c-.036 1.503-.059 3.005.146 4.461.215 1.437.686 2.879 1.121 4.311.921 2.86 1.679 5.906 1.641 9.018-.018 1.554-.21 3.134-.77 4.651a8.746 8.746 0 0 1-.494 1.109c-.179.347-.448.738-.596 1.01-.371.573-.619 1.245-.857 1.907-.816 2.723-.873 5.756-.166 8.478.195.672.41 1.339.724 1.938.143.312.32.594.507.865l.312.465c.115.17.233.34.335.518a13.828 13.828 0 0 1 1.659 4.529c.251 1.589.274 3.25-.2 4.849-.212.801-.602 1.559-1.06 2.256-.266.329-.496.681-.819.953l-.791.749c-.896.925-1.136 2.393-.98 3.82.128 1.442.514-.64 1.106.731" fill="#ffffff" class="colorffffff svgShape"></path>
  <path d="M357.15 230.614h-24.893l-5.131-25.185h35.153z" fill="#f42a64" class="color2a94f4 svgShape"></path>
</svg>
