<svg xmlns="http://www.w3.org/2000/svg" id="manplayingwiththedog" viewBox="0 0 700 550">
  <path fill="#f9c0d0" d="M422.96842,476.34584c16.25-5.08,30.83-10.27,48.37-20.12,18.09-10.16,98.45-58.51,108.9-142.19a159.61541,159.61541,0,0,0-6.66-68.16c-3.23-9.47-9.93-28.49-26.84-47.3-20.7-23.04-44.32-31.97-58.17-37.02-29.14-10.63-53.58-10.07-65.22-9.69-12.56.41-34.73,1.33-59.93,12.34-16.44,7.18-26.66,15.37-41.72,27.61-23.86,19.41-27,27.49-68.74,67.57-11.46,11-20.88,19.67-35.26,28.21-9.97,5.92-18.03,9.23-32.9,15.27-36.55,14.85-46.95657,17.85676-58.91657,26.21676-23.26,16.27-21.75343,34.01324-22.75343,37.83324a75.12694,75.12694,0,0,0-1.77,29.97c3.05,20.07,13.86,33.19,20.57,41.13a113.09822,113.09822,0,0,0,32.9,26.44,210.24676,210.24676,0,0,0,26.96,11.89Z" class="colorf9e0c0 svgShape"></path>
  <path fill="#f9c0d0" d="M474.56008,462.16l-.49024-.87109c23.90039-13.42676,102.69727-63.7627,113.17774-147.73633a166.329,166.329,0,0,0-6.91406-70.77246c-2.97657-8.73145-9.94825-29.17969-27.84766-49.09571-21.9209-24.39062-46.94531-33.51855-60.38965-38.42187a174.0667,174.0667,0,0,0-67.74707-10.06836c-12.4248.40332-35.55078,1.15625-62.24316,12.81055l-.40039-.916c26.86816-11.73145,51.00878-12.5166,62.61035-12.89453a175.05253,175.05253,0,0,1,68.12207,10.1289c13.52636,4.9336,38.7041,14.11719,60.792,38.69336,18.03516,20.06739,25.05371,40.65137,28.05078,49.44141a167.39934,167.39934,0,0,1,6.959,71.21777C577.70168,398.11512,498.564,448.67566,474.56008,462.16Z" class="colorf9e0c0 svgShape"></path>
  <polygon fill="#a56a7b" points="190.703 355.409 333.988 349.783 257.838 347.13 131.562 354.544 122.783 358.264 190.703 355.409" class="colora5716a svgShape"></polygon>
  <polygon fill="#d39cac" points="120.403 391.33 200.255 411.177 197.918 355.106 122.783 358.264 120.403 391.33" class="colord3a39c svgShape"></polygon>
  <path fill="#d39cac" d="M131.87115,357.88207l-9.08778.382-15.42183-93.63187a16.3332,16.3332,0,0,1,13.85159-18.82989l7.7112-1.07953Z" class="colord3a39c svgShape"></path>
  <path fill="#935063" d="M264.7755,475.34584a7.19445,7.19445,0,0,1-.51461-2.70847V405.90072a7.44829,7.44829,0,1,1,14.89658,0v66.73665a7.19445,7.19445,0,0,1-.51461,2.70847Z" class="color935b50 svgShape"></path>
  <path fill="#935063" d="M181.80341,420.18965c.13754,0,.27508-.004.41394-.01058l150.79609-8.26029a7.44886,7.44886,0,0,0-.81466-14.87542l-150.79609,8.2603a7.44856,7.44856,0,0,0,.40072,14.886Z" class="color935b50 svgShape"></path>
  <path fill="#935063" d="M326.50149,475.34584a7.21078,7.21078,0,0,1-.43335-2.36991L323.92845,323.6987a10.25553,10.25553,0,0,0-3.64289-7.55662,13.58612,13.58612,0,0,0-10.49532-3.196l-54.061,5.98572A7.4461,7.4461,0,1,1,254.09059,304.13l54.061-5.99926a28.58355,28.58355,0,0,1,21.99276,6.83888A24.99576,24.99576,0,0,1,338.825,323.482l2.13969,149.27724a7.45746,7.45746,0,0,1-.41981,2.58658Z" class="color935b50 svgShape"></path>
  <path fill="#c38697" d="m200.09959 404.45153 134.90877-6.24525a8.00005 8.00005 0 0 0 7.716-7.98963l-.28124-32.52751a8.07993 8.07993 0 0 0-8.45518-7.90659L198.65157 354.7808a7.99977 7.99977 0 0 0-7.79195 8.089l.70879 33.77451A8.08433 8.08433 0 0 0 200.09959 404.45153ZM131.56179 354.54355l126.276-7.41388-8.65442-93.78887a10.83387 10.83387 0 0 0-10.82305-9.83835l-105.20759.34a10.83386 10.83386 0 0 0-10.75264 11.83346Z" class="colorc38f86 svgShape"></path>
  <path fill="#935063" d="M105.08421,307.46143a7.3882,7.3882,0,0,1,4.94295-2.8168l9.68278-1.23236,40.03116-5.07837a25.63915,25.63915,0,0,1,28.85873,25.25646l1.09693,149.20952a7.55846,7.55846,0,0,1-.43336,2.546H175.23354a6.94355,6.94355,0,0,1-.43336-2.43762L173.70325,323.6987a10.76543,10.76543,0,0,0-12.09331-10.59011l-40.70828,5.17318-9.00565,1.13755a7.378,7.378,0,0,1-5.99926-1.923Z" class="color935b50 svgShape"></path>
  <path fill="#935063" d="M132.85955,475.34584a7.37482,7.37482,0,0,0,.41981-3.10119l-12.3777-153.96288-1.19172-14.8695-4.55023-56.6747a7.45184,7.45184,0,0,0-14.856,1.19173l4.78045,59.53213.81254,10.03488L118.437,473.44991a6.77279,6.77279,0,0,0,.41981,1.89593Z" class="color935b50 svgShape"></path>
  <rect width="16.25" height="66.44" x="141.515" y="371.792" fill="#935063" transform="rotate(-79.306 149.64 405.012)" class="color935b50 svgShape"></rect>
  <path fill="#d64b73" d="M386.9334,91.16609h134.532v152.7065H386.9334Zm129.75165,4.7796H391.71378V239.093H516.68505Z" class="colord6694b svgShape"></path>
  <rect width="128.698" height="49.814" x="389.293" y="94.028" fill="#d64b73" transform="rotate(-180 453.642 118.935)" class="colord6694b svgShape"></rect>
  <rect width="143.967" height="7.155" x="382.216" y="243.915" fill="#935063" rx="1.291" transform="rotate(-180 454.2 247.493)" class="color935b50 svgShape"></rect>
  <rect width="124.971" height="5.724" x="391.714" y="142.022" fill="#e17493" transform="rotate(-180 454.2 144.884)" class="colore19974 svgShape"></rect>
  <rect width="1" height="58.918" x="475.051" y="158.465" fill="#e17493" transform="rotate(-46.161 475.55 187.924)" class="colore19974 svgShape"></rect>
  <rect width="1.001" height="48.558" x="478.483" y="143.026" fill="#e17493" transform="rotate(-47.208 478.983 167.305)" class="colore19974 svgShape"></rect>
  <path fill="#935063" d="m374.70186 97.61724 158.98586.33921a2.16821 2.16821 0 0 0 2.17283-2.1682v-2.454a2.1682 2.1682 0 0 0-2.1682-2.1682H374.70649a2.16821 2.16821 0 0 0-2.16821 2.1682V95.449A2.16821 2.16821 0 0 0 374.70186 97.61724ZM533.70781 106.14593 374.722 107.28005a2.1682 2.1682 0 0 1-2.18368-2.16815v-3.42425a2.1682 2.1682 0 0 1 2.16821-2.1682H533.69235a2.1682 2.1682 0 0 1 2.1682 2.1682v2.29013A2.16821 2.16821 0 0 1 533.70781 106.14593ZM533.71419 114.86374l-158.98586 1.60182a2.16821 2.16821 0 0 1-2.19005-2.16809v-2.9001a2.16822 2.16822 0 0 1 2.15-2.16813l158.98586-1.338a2.1682 2.1682 0 0 1 2.18645 2.16812v2.63631A2.16821 2.16821 0 0 1 533.71419 114.86374ZM533.65873 124.44874 374.67287 121.9836a2.16821 2.16821 0 0 1-2.13459-2.16795v-.06492a2.16821 2.16821 0 0 1 2.15-2.16813l158.98586-1.338a2.16821 2.16821 0 0 1 2.18645 2.16813v3.86811A2.1682 2.1682 0 0 1 533.65873 124.44874ZM533.672 131.81872l-158.98585-1.49467a2.1682 2.1682 0 0 1-2.14783-2.16811v-2.268a2.1682 2.1682 0 0 1 2.19853-2.168l158.98586 2.22367a2.1682 2.1682 0 0 1 2.13788 2.168v1.539A2.16821 2.16821 0 0 1 533.672 131.81872ZM533.69235 137.36662H374.70649a2.16821 2.16821 0 0 1-2.16821-2.16821v-.48734a2.1682 2.1682 0 0 1 2.17485-2.16819l158.98585.48676a2.1682 2.1682 0 0 1 2.16157 2.16819v.00058A2.16821 2.16821 0 0 1 533.69235 137.36662Z" class="color935b50 svgShape"></path>
  <path fill="#935063" d="M379.02118 139.599a.75.75 0 0 0 .74218-.64893l.20606-1.47851a.75006.75006 0 1 0-1.48535-.21l-.207 1.48633a.75029.75029 0 0 0 .64209.84423A.7204.7204 0 0 0 379.02118 139.599ZM380.55145 229.56138a.74989.74989 0 0 1-.748-.752l.001-.51318c0-.78516-.00635-1.6167-.021-2.49024a.75011.75011 0 0 1 1.5-.02539c.01465.88233.021 1.72266.021 2.51563l-.001.51709a.75008.75008 0 0 1-.75.748Zm-.84912-6.75635q-.05859-1.56591-.14551-2.99414a.74988.74988 0 0 1 1.49707-.08984c.05811.96436.10742 1.97168.14746 3.02734a.7499.7499 0 0 1-.72119.77784l-.02881.00048A.7498.7498 0 0 1 379.70233 222.805Zm-.36426-5.98046c-.08984-1.04248-.19043-2.03174-.30029-2.97754a.75011.75011 0 1 1 1.49023-.17285c.11084.96044.21338 1.96435.3042 3.02148a.74926.74926 0 0 1-.68261.81152c-.022.002-.04395.00293-.06543.00293A.75007.75007 0 0 1 379.33807 216.82457Zm-.688-5.94434c-.1499-1.02637-.30908-2.00586-.47363-2.95557a.74985.74985 0 0 1 1.47754-.25683c.16748.9624.32861 1.95556.48047 2.9956a.75006.75006 0 0 1-1.48438.2168ZM377.633 204.973l-.57568-2.95507a.75019.75019 0 1 1 1.47266-.28711l.57666 2.96a.75078.75078 0 0 1-.59571.87793.78511.78511 0 0 1-.14209.01318A.75056.75056 0 0 1 377.633 204.973Zm-1.13964-5.92627c-.1753-.96679-.3462-1.957-.50782-2.98925a.75027.75027 0 1 1 1.48242-.23243c.15967 1.02051.32764 1.999.501 2.95411a.74982.74982 0 1 1-1.47558.26757Zm-.93213-5.99609c-.1211-.96-.23243-1.9624-.3335-3.01855a.75.75 0 1 1 1.49316-.14258c.09913 1.04052.20948 2.02832.32862 2.97363a.7501.7501 0 0 1-.65039.83789.77613.77613 0 0 1-.09473.00586A.74981.74981 0 0 1 375.56122 193.05064Zm-.57618-6.04883c-.06445-1.01513-.10986-2.023-.1372-3.04053a.74964.74964 0 0 1 .729-.77.71516.71516 0 0 1 .77.729c.02734 1 .07178 1.98926.13525 2.98682a.75007.75007 0 0 1-.70117.79589c-.01611.001-.03222.00147-.04785.00147A.75031.75031 0 0 1 374.985 187.00181Zm.57764-5.32763a.74989.74989 0 0 1-.7456-.7544c.00585-.98242.02587-1.98926.05957-3.03564a.737.737 0 0 1 .77343-.72559.74975.74975 0 0 1 .72559.77344c-.03272 1.03271-.05274 2.02685-.05859 2.99658a.75022.75022 0 0 1-.75.74561Zm.1499-6.03125a.75012.75012 0 0 1-.71093-.78711c.04882-.96436.106-1.96827.17089-3.02a.74145.74145 0 0 1 .79493-.70215.74976.74976 0 0 1 .70214.79492c-.06494 1.0459-.12109 2.04395-.16992 3.00342a.74993.74993 0 0 1-.74853.71191Zm.3545-6.02344a.74959.74959 0 0 1-.69629-.79981q.0996-1.44287.21435-3.01172a.75.75 0 0 1 1.4961.10938q-.11427 1.56812-.21436 3.00586a.74974.74974 0 0 1-.74707.69824C376.10223 169.62144 376.08465 169.621 376.06708 169.61949Zm.43212-6.01758a.75053.75053 0 0 1-.69189-.8042l.22656-3.00879a.75023.75023 0 1 1 1.4961.11426L377.3034 162.91a.75008.75008 0 0 1-.74707.69384C376.53729 163.60386 376.51825 163.60337 376.4992 163.60191Zm.46143-6.01563a.74944.74944 0 0 1-.68359-.81054q.13036-1.53809.269-3.01172a.74984.74984 0 1 1 1.49316.13965q-.137 1.46777-.26806 2.999a.74986.74986 0 0 1-.7461.68652Q376.99286 157.58921 376.96063 157.58628Zm.55127-6.00927a.74983.74983 0 0 1-.67041-.82178q.15674-1.54614.31982-3.00781a.75016.75016 0 1 1 1.49121.165q-.16187 1.45531-.31884 2.99414a.75015.75015 0 0 1-.74512.67431C377.56317 151.58091 377.53729 151.57945 377.5119 151.577Zm.65039-6.00049a.75012.75012 0 0 1-.65527-.834q.18676-1.55785.37207-3.00048a.75021.75021 0 1 1 1.48828.19043q-.18457 1.43628-.3711 2.98877a.75038.75038 0 0 1-.74365.66064A.70525.70525 0 0 1 378.16229 145.57652ZM380.466 234.13707a.74992.74992 0 0 0 .749-.72412c.01563-.45557.03125-.95752.04493-1.50245a.75072.75072 0 0 0-.73194-.76806.77855.77855 0 0 0-.76806.73193c-.0127.53906-.02832 1.03613-.04395 1.48682a.74981.74981 0 0 0 .72363.77539Z" class="color935b50 svgShape"></path>
  <polygon fill="#e17493" points="409.16 239.093 423.297 239.093 428.06 214.059 404.397 214.059 409.16 239.093" class="colore19974 svgShape"></polygon>
  <polygon fill="#d64b73" points="404.941 216.916 404.397 214.059 428.06 214.059 427.516 216.916 404.941 216.916" class="colord6694b svgShape"></polygon>
  <rect width="4.223" height="4.223" x="420.055" y="227.225" fill="#d64b73" transform="rotate(135 422.167 229.337)" class="colord6694b svgShape"></rect>
  <rect width="4.223" height="4.223" x="414.083" y="227.225" fill="#d64b73" transform="rotate(135 416.194 229.337)" class="colord6694b svgShape"></rect>
  <rect width="4.223" height="4.223" x="408.179" y="227.225" fill="#d64b73" transform="rotate(135 410.29 229.337)" class="colord6694b svgShape"></rect>
  <path fill="#803148" d="M410.722,192.99012s-1.24136,17.53747,6.03439,21.25414C416.75635,214.24426,419.2752,207.59521,410.722,192.99012Z" class="color558031 svgShape"></path>
  <path fill="#9f4c64" d="M434.19943,200.52346s-11.90278,2.05371-17.44308,13.7208C416.75635,214.24426,429.84535,209.7987,434.19943,200.52346Z" class="color849f4c svgShape"></path>
  <path fill="#b8627b" d="M429.979,223.4952s-6.05337-9.05609-13.22267-9.25094C416.75635,214.24426,417.83565,221.53609,429.979,223.4952Z" class="colora6b862 svgShape"></path>
  <path fill="#9f4c64" d="M422.51208,195.48989s-8.39909,7.66866-5.75573,18.75437C416.75635,214.24426,421.40914,209.31237,422.51208,195.48989Z" class="color849f4c svgShape"></path>
  <path fill="#b8627b" d="M416.75635,214.24426s-2.95091-10.802-17.86844-13.572C398.88791,200.67228,402.245,210.50772,416.75635,214.24426Z" class="colora6b862 svgShape"></path>
  <path fill="#9f4c64" d="M394.93623,211.42053s11.38165-4.69218,21.82012,2.82373C416.75635,214.24426,402.87952,215.91031,394.93623,211.42053Z" class="color849f4c svgShape"></path>
  <path fill="#803148" d="M395.03977 222.34443s5.49566-8.80277 21.71658-8.10017ZM440.33015 212.81939s-14.94765-5.54253-23.7694 1.15986C416.56075 213.97925 424.93723 218.59311 440.33015 212.81939Z" class="color558031 svgShape"></path>
  <path fill="#803148" d="M428.07271,196.77049s-13.33786,9.43347-11.42452,17.48144C416.64819,214.25193,425.90157,206.83268,428.07271,196.77049Z" class="color558031 svgShape"></path>
  <path fill="#9f4c64" d="M404.67568,223.63377s10.99555-1.87718,12.08067-9.38951C416.75635,214.24426,408.72222,214.64219,404.67568,223.63377Z" class="color849f4c svgShape"></path>
  <path fill="#ff5586" d="M235.49266 201.17423H161.84843a2 2 0 0 1-2-2V119.44685a2 2 0 0 1 2-2h87.28846a2 2 0 0 1 2 2V186.1219ZM249.13691 201.17423a2 2 0 0 0 2-2v-13.0523l-15.64423 15.0523Z" class="colorffba55 svgShape"></path>
  <path fill="#e62a60" d="M175.4925 126.82664a1.49977 1.49977 0 0 1-1.5-1.5v-14.3999a1.5 1.5 0 0 1 3 0v14.3999A1.49977 1.49977 0 0 1 175.4925 126.82664ZM165.4925 126.82664a1.49977 1.49977 0 0 1-1.5-1.5v-14.3999a1.5 1.5 0 0 1 3 0v14.3999A1.49977 1.49977 0 0 1 165.4925 126.82664ZM185.4925 126.82664a1.49977 1.49977 0 0 1-1.5-1.5v-14.3999a1.5 1.5 0 0 1 3 0v14.3999A1.49977 1.49977 0 0 1 185.4925 126.82664ZM195.4925 126.82664a1.49977 1.49977 0 0 1-1.5-1.5v-14.3999a1.5 1.5 0 0 1 3 0v14.3999A1.49977 1.49977 0 0 1 195.4925 126.82664ZM205.4925 126.82664a1.49977 1.49977 0 0 1-1.5-1.5v-14.3999a1.5 1.5 0 0 1 3 0v14.3999A1.49977 1.49977 0 0 1 205.4925 126.82664ZM215.4925 126.82664a1.49977 1.49977 0 0 1-1.5-1.5v-14.3999a1.5 1.5 0 0 1 3 0v14.3999A1.49977 1.49977 0 0 1 215.4925 126.82664ZM225.4925 126.82664a1.49977 1.49977 0 0 1-1.5-1.5v-14.3999a1.5 1.5 0 0 1 3 0v14.3999A1.49977 1.49977 0 0 1 225.4925 126.82664ZM235.4925 126.82664a1.49977 1.49977 0 0 1-1.5-1.5v-14.3999a1.5 1.5 0 0 1 3 0v14.3999A1.49977 1.49977 0 0 1 235.4925 126.82664ZM245.4925 126.82664a1.49977 1.49977 0 0 1-1.5-1.5v-14.3999a1.5 1.5 0 0 1 3 0v14.3999A1.49977 1.49977 0 0 1 245.4925 126.82664Z" class="colore6952a svgShape"></path>
  <polygon fill="#e62a60" points="251.067 186.05 235.424 186.194 235.562 201.246 251.067 186.05" class="colore6952a svgShape"></polygon>
  <circle cx="213.993" cy="142.326" r="6.48" fill="#e62a60" class="colore6952a svgShape"></circle>
  <circle cx="231.972" cy="142.326" r="6.48" fill="#e62a60" class="colore6952a svgShape"></circle>
  <circle cx="176.581" cy="158.326" r="6.48" fill="#e62a60" class="colore6952a svgShape"></circle>
  <circle cx="195.493" cy="158.326" r="6.48" fill="#e62a60" class="colore6952a svgShape"></circle>
  <circle cx="213.993" cy="158.326" r="6.48" fill="#e62a60" class="colore6952a svgShape"></circle>
  <circle cx="231.972" cy="158.326" r="6.48" fill="#e62a60" class="colore6952a svgShape"></circle>
  <circle cx="176.581" cy="174.326" r="6.48" fill="#e62a60" class="colore6952a svgShape"></circle>
  <circle cx="195.493" cy="174.326" r="6.48" fill="#e62a60" class="colore6952a svgShape"></circle>
  <circle cx="213.993" cy="174.326" r="6.48" fill="#e62a60" class="colore6952a svgShape"></circle>
  <circle cx="231.972" cy="174.326" r="6.48" fill="#e62a60" class="colore6952a svgShape"></circle>
  <circle cx="176.581" cy="189.326" r="6.48" fill="#e62a60" class="colore6952a svgShape"></circle>
  <path fill="#af2f54" d="M191.72658,167.98743a37.70061,37.70061,0,0,1,4.32031,6.00977c.61792,1.06225,1.22193,2.13281,1.76148,3.2417a26.777,26.777,0,0,1,1.45,3.42675,26.8178,26.8178,0,0,1-2.31592-2.91235c-.71582-1.00415-1.36694-2.04663-2.00439-3.09741A37.73551,37.73551,0,0,1,191.72658,167.98743Z" class="coloraf2f2f svgShape"></path>
  <path fill="#af2f54" d="M199.25832,167.98743a37.71808,37.71808,0,0,1-3.21143,6.66846c-.6372,1.05078-1.28857,2.09326-2.00439,3.09741a26.81659,26.81659,0,0,1-2.31592,2.91235,26.77814,26.77814,0,0,1,1.4502-3.42675c.5393-1.10889,1.14331-2.17945,1.76123-3.2417A37.70061,37.70061,0,0,1,199.25832,167.98743Z" class="coloraf2f2f svgShape"></path>
  <path fill="#9d3654" d="M537.78146,449.68833c.37387-.73686,37.37865-74.07278,35.08357-103.57323l1.23652-.09524c2.32214,29.84623-33.68,101.20737-35.214,104.23037Z" class="color8b9d36 svgShape"></path>
  <path fill="#9d3654" d="M573.44587 347.73154a14.51116 14.51116 0 0 1-1.56682-5.37628 19.364 19.364 0 0 1 .16873-5.087 19.029 19.029 0 0 1 1.483-4.86762l.02286-.04822a2.52866 2.52866 0 0 1 4.78115.79729l.006.053a19.03115 19.03115 0 0 1-.17693 5.08564 19.36221 19.36221 0 0 1-1.49123 4.8663A14.51116 14.51116 0 0 1 573.44587 347.73154ZM570.9137 366.65131a9.8846 9.8846 0 0 1-5.25038-2.36558 13.001 13.001 0 0 1-3.38466-4.4483 11.86907 11.86907 0 0 1-1.09823-5.636l.00358-.06449a2.50346 2.50346 0 0 1 4.69679-.96835q.05074.09251.10195.18458c.72446 1.329 1.31337 2.58527 1.93206 3.89929a44.97987 44.97987 0 0 1 1.68982 4.18954A29.46466 29.46466 0 0 1 570.9137 366.65131ZM573.17045 354.75514a9.88468 9.88468 0 0 1-5.25038-2.36559 13.00107 13.00107 0 0 1-3.38466-4.44829 11.86914 11.86914 0 0 1-1.09823-5.636l.00358-.06448a2.50346 2.50346 0 0 1 4.69679-.96835q.05074.09249.10194.18458c.72447 1.329 1.31338 2.58527 1.93207 3.89928a44.98009 44.98009 0 0 1 1.68982 4.18955A29.46466 29.46466 0 0 1 573.17045 354.75514ZM572.82388 358.02024a15.34022 15.34022 0 0 1 1.79953-5.49047 20.85537 20.85537 0 0 1 3.08621-4.28984 20.48538 20.48538 0 0 1 4.06011-3.3811l.09786-.06014a2.50567 2.50567 0 0 1 3.52133 3.285l-.05348.1023a20.48329 20.48329 0 0 1-3.09252 4.284 20.88175 20.88175 0 0 1-4.0659 3.37558A15.35116 15.35116 0 0 1 572.82388 358.02024ZM566.21667 382.71773a15.37093 15.37093 0 0 1-4.25513-3.91765 20.91908 20.91908 0 0 1-2.629-4.59144 20.54887 20.54887 0 0 1-1.39876-5.10171q-.01257-.09877-.02442-.19784a2.48269 2.48269 0 0 1 4.4065-1.82732q.06181.07846.12288.15723a20.54948 20.54948 0 0 1 2.62117 4.59459 20.9202 20.9202 0 0 1 1.39147 5.10514A15.3614 15.3614 0 0 1 566.21667 382.71773ZM561.52639 396.97226a17.02777 17.02777 0 0 1-4.29962-4.3602 23.921 23.921 0 0 1-2.65931-4.99724 23.49214 23.49214 0 0 1-1.41734-5.47913q-.0101-.08321-.01973-.16658a2.48212 2.48212 0 0 1 4.4684-1.73479q.04917.06807.09788.1363a23.509 23.509 0 0 1 2.651 5 23.92721 23.92721 0 0 1 1.40954 5.48221A17.01779 17.01779 0 0 1 561.52639 396.97226ZM556.28025 409.98805a19.46673 19.46673 0 0 1-4.82492-4.49 28.29386 28.29386 0 0 1-3.23467-5.245 27.79559 27.79559 0 0 1-2.03262-5.81734l-.02689-.12494a2.4815 2.4815 0 0 1 4.35194-2.06825l.07982.09967a27.80988 27.80988 0 0 1 3.22776 5.249 28.29808 28.29808 0 0 1 2.02466 5.82075A19.46725 19.46725 0 0 1 556.28025 409.98805ZM551.00067 423.03713a19.63971 19.63971 0 0 1-5.00385-4.33913 28.59946 28.59946 0 0 1-3.443-5.15267 28.08059 28.08059 0 0 1-2.26234-5.76882l-.00007-.00028a2.50444 2.50444 0 0 1 4.324-2.25516h0a28.10965 28.10965 0 0 1 3.436 5.15686 28.62776 28.62776 0 0 1 2.25483 5.77264A19.64574 19.64574 0 0 1 551.00067 423.03713ZM546.34011 433.88945a21.654 21.654 0 0 1-5.58449-4.19151 32.224 32.224 0 0 1-4.10405-5.14332 31.645 31.645 0 0 1-2.98406-5.86382l-.0001-.00027a2.4968 2.4968 0 0 1 4.10193-2.63769h0a31.6497 31.6497 0 0 1 4.09741 5.14812 32.2273 32.2273 0 0 1 2.97689 5.86834A21.64036 21.64036 0 0 1 546.34011 433.88945ZM540.53576 445.65164a23.06777 23.06777 0 0 1-5.17373-5.04238 34.77014 34.77014 0 0 1-3.59281-5.81606 34.13915 34.13915 0 0 1-2.3962-6.40143l-.00009-.00035a2.49232 2.49232 0 0 1 4.38029-2.14378h0a34.12068 34.12068 0 0 1 3.58535 5.81982 34.76365 34.76365 0 0 1 2.38877 6.40513A23.07051 23.07051 0 0 1 540.53576 445.65164ZM569.63281 372.60939a18.53564 18.53564 0 0 1 2.84952-5.75022 26.62577 26.62577 0 0 1 4.01334-4.42961 26.16208 26.16208 0 0 1 4.89348-3.43057l.12576-.066a2.48171 2.48171 0 0 1 3.18008 3.6087l-.08127.11637a26.16341 26.16341 0 0 1-4.01892 4.42333 26.626 26.626 0 0 1-4.89907 3.42428A18.53654 18.53654 0 0 1 569.63281 372.60939ZM565.46528 386.17541a15.86133 15.86133 0 0 1 2.98962-5.06971 21.787 21.787 0 0 1 4.00174-3.62909 21.39457 21.39457 0 0 1 4.76694-2.53945l.05216-.01906a2.51756 2.51756 0 0 1 2.7863 3.96735l-.0356.04257a21.39214 21.39214 0 0 1-4.00641 3.62236 21.78958 21.78958 0 0 1-4.77156 2.53264A15.85041 15.85041 0 0 1 565.46528 386.17541ZM560.94287 399.03444a17.67417 17.67417 0 0 1 4.01167-4.79366 25.096 25.096 0 0 1 4.81611-3.22819 24.61917 24.61917 0 0 1 5.42494-2.04343h0a2.51426 2.51426 0 0 1 2.2287 4.33769h0a24.61224 24.61224 0 0 1-4.81974 3.22079 25.089 25.089 0 0 1-5.42861 2.0361A17.66445 17.66445 0 0 1 560.94287 399.03444ZM555.297 412.87489a18.57949 18.57949 0 0 1 4.61847-4.47184 26.74827 26.74827 0 0 1 5.27349-2.83866 26.29538 26.29538 0 0 1 5.7696-1.60253l.14016-.02022a2.4817 2.4817 0 0 1 1.79189 4.46424l-.11519.08226a26.27491 26.27491 0 0 1-5.27687 2.8308 26.77323 26.77323 0 0 1-5.773 1.5946A18.60169 18.60169 0 0 1 555.297 412.87489ZM550.55851 424.40454a22.23641 22.23641 0 0 1 5.8508-3.9908 33.2686 33.2686 0 0 1 6.28376-2.2847 32.70237 32.70237 0 0 1 6.61061-.9939h.0004a2.49507 2.49507 0 0 1 1.19866 4.72748h0a32.67575 32.67575 0 0 1-6.28569 2.27666 33.2751 33.2751 0 0 1-6.613.98552A22.22671 22.22671 0 0 1 550.55851 424.40454Z" class="color8b9d36 svgShape"></path>
  <path fill="#9d3654" d="M545.85433 434.21667a19.29268 19.29268 0 0 1 5.68311-3.27216 27.98317 27.98317 0 0 1 5.93345-1.53017 27.48084 27.48084 0 0 1 6.1231-.21172h.0001a2.50621 2.50621 0 0 1 .69416 4.82743h0a27.48584 27.48584 0 0 1-5.93509 1.52161 27.97941 27.97941 0 0 1-6.12421.20343A19.28481 19.28481 0 0 1 545.85433 434.21667ZM542.47038 442.13234a24.16626 24.16626 0 0 1 6.91861-2.64272 36.725 36.725 0 0 1 6.97277-.8833 36.07481 36.07481 0 0 1 7.01272.44756l.00038.00007a2.4896 2.4896 0 0 1 .149 4.87485h0a36.09657 36.09657 0 0 1-6.97312.8749 36.72656 36.72656 0 0 1-7.01305-.456A24.16591 24.16591 0 0 1 542.47038 442.13234ZM560.03509 448.18074a2.48621 2.48621 0 0 1-.74455 4.80272h-.00016a33.49841 33.49841 0 0 1-6.70034-.36076 32.88734 32.88734 0 0 1-6.4955-1.67662 22.12346 22.12346 0 0 1-6.22405-3.43266 22.12694 22.12694 0 0 1 6.97132-1.38662 32.898 32.898 0 0 1 6.69823.36864 33.49558 33.49558 0 0 1 6.495 1.68528Z" class="color8b9d36 svgShape"></path>
  <path fill="#7d374b" d="M555.53219,435.38051c-.15579-.93519-15.43655-93.93969-2.77684-125.44234l-1.32077-.52958c-12.80828,31.87183,2.05426,122.3698,2.69357,126.20654Z" class="color5f7d37 svgShape"></path>
  <path fill="#7d374b" d="M551.56353 311.50778a16.65044 16.65044 0 0 0 3.5644-5.34609 22.21887 22.21887 0 0 0 1.5651-5.6264 21.83351 21.83351 0 0 0 .051-5.83838l-.00844-.06064a2.90138 2.90138 0 0 0-5.50783-.77186l-.02475.05591a21.83584 21.83584 0 0 0-1.55566 5.62776 22.216 22.216 0 0 0-.04155 5.83974A16.65014 16.65014 0 0 0 551.56353 311.50778ZM547.82737 333.089a11.34155 11.34155 0 0 0 6.56093-.78344 14.91749 14.91749 0 0 0 5.23506-3.705 13.61876 13.61876 0 0 0 3.14082-5.7916l.01826-.07182a2.87249 2.87249 0 0 0-4.80817-2.67557q-.08735.08379-.17508.167c-1.25017 1.20557-2.32693 2.37814-3.45615 3.60369a51.60583 51.60583 0 0 0-3.29083 4.00475A33.80715 33.80715 0 0 0 547.82737 333.089ZM549.44906 319.29076a11.34163 11.34163 0 0 0 6.56093-.78343 14.91752 14.91752 0 0 0 5.23506-3.705 13.61865 13.61865 0 0 0 3.14082-5.7916l.01826-.07182a2.87248 2.87248 0 0 0-4.80816-2.67557q-.08736.08379-.17509.167c-1.25017 1.20558-2.32692 2.37815-3.45615 3.60369a51.60583 51.60583 0 0 0-3.29083 4.00475A33.8081 33.8081 0 0 0 549.44906 319.29076ZM548.70531 322.98406a17.60151 17.60151 0 0 0-.08123-6.629 23.92974 23.92974 0 0 0-1.90266-5.75737 23.50528 23.50528 0 0 0-3.2813-5.09763l-.08643-.0995a2.875 2.875 0 0 0-4.98452 2.38462l.02334.13038a23.50287 23.50287 0 0 0 1.91158 5.75313 23.95934 23.95934 0 0 0 3.28955 5.09359A17.61426 17.61426 0 0 0 548.70531 322.98406ZM547.44242 352.29141a17.63681 17.63681 0 0 0 6.00537-2.82472 24.00239 24.00239 0 0 0 4.45713-4.12162 23.57826 23.57826 0 0 0 3.286-5.10334q.04775-.1038.09479-.20816a2.84864 2.84864 0 0 0-4.19494-3.516q-.09465.06462-.18859.12984a23.5779 23.5779 0 0 0-4.44965 4.12776 24.00366 24.00366 0 0 0-3.27918 5.10961A17.62557 17.62557 0 0 0 547.44242 352.29141ZM547.67333 369.5082a19.53773 19.53773 0 0 0 6.20629-3.29384 27.447 27.447 0 0 0 4.6299-4.55539 26.955 26.955 0 0 0 3.43615-5.5101q.03968-.0876.0789-.17556a2.848 2.848 0 0 0-4.29452-3.436q-.07724.05759-.154.11553a26.97334 26.97334 0 0 0-4.62175 4.56132 27.45432 27.45432 0 0 0-3.42869 5.51614A19.52633 19.52633 0 0 0 547.67333 369.5082ZM548.93879 385.56023a22.336 22.336 0 0 0 6.82595-3.25519 32.46457 32.46457 0 0 0 5.34492-4.62871 31.89187 31.89187 0 0 0 4.226-5.66866l.07242-.12752a2.84728 2.84728 0 0 0-4.05233-3.76093l-.12166.08164a31.90927 31.90927 0 0 0-5.33874 4.63544 32.46914 32.46914 0 0 0-4.21845 5.67515A22.33645 22.33645 0 0 0 548.93879 385.56023ZM550.22941 401.6602a22.53471 22.53471 0 0 0 6.96992-3.02853 32.81563 32.81563 0 0 0 5.5412-4.456 32.22008 32.22008 0 0 0 4.46075-5.53654l.00017-.00028A2.87361 2.87361 0 0 0 563.244 384.683h0a32.25333 32.25333 0 0 0-5.535 4.463 32.84835 32.84835 0 0 0-4.45386 5.54331A22.54172 22.54172 0 0 0 550.22941 401.6602ZM551.59806 415.14261a24.84573 24.84573 0 0 0 7.55473-2.66723 36.974 36.974 0 0 0 6.2616-4.21834 36.30961 36.30961 0 0 0 5.28347-5.39227l.0002-.00026a2.86484 2.86484 0 0 0-3.5828-4.29826h0a36.3159 36.3159 0 0 0-6.256 4.22588 36.97841 36.97841 0 0 0-5.27716 5.39969A24.83019 24.83019 0 0 0 551.59806 415.14261ZM553.90577 430.01442a26.46838 26.46838 0 0 0 7.39778-3.7399 39.89567 39.89567 0 0 0 5.93338-5.1306 39.17123 39.17123 0 0 0 4.8249-6.183l.00021-.00035a2.8597 2.8597 0 0 0-4.05738-3.85337h0a39.14984 39.14984 0 0 0-5.9265 5.13729 39.88746 39.88746 0 0 0-4.818 6.18957A26.471 26.471 0 0 0 553.90577 430.01442ZM547.18 340.05144a21.268 21.268 0 0 0-1.14124-7.27453 30.55042 30.55042 0 0 0-2.86944-6.22928 30.019 30.019 0 0 0-4.17652-5.43845l-.115-.11555a2.84753 2.84753 0 0 0-4.72232 2.85633l.04893.15533a30.02 30.02 0 0 0 2.87772 6.22432 30.55051 30.55051 0 0 0 4.1848 5.43349A21.26877 21.26877 0 0 0 547.18 340.05144ZM547.07556 356.33475a18.19951 18.19951 0 0 0-1.52867-6.57781 24.99917 24.99917 0 0 0-3.13211-5.349 24.54844 24.54844 0 0 0-4.34453-4.41948l-.05054-.0388a2.88866 2.88866 0 0 0-4.41465 3.38436l.02433.05885a24.5463 24.5463 0 0 0 3.13953 5.34325 25.00146 25.00146 0 0 0 4.35194 4.41361A18.18658 18.18658 0 0 0 547.07556 356.33475ZM547.60272 371.96624a20.27976 20.27976 0 0 0-2.74238-6.62721 28.7962 28.7962 0 0 0-4.16145-5.1903 28.24789 28.24789 0 0 0-5.23542-4.10284l0 0a2.88487 2.88487 0 0 0-3.93166 3.98156h0a28.24084 28.24084 0 0 0 4.168 5.18345 28.78716 28.78716 0 0 0 5.24195 4.09609A20.26831 20.26831 0 0 0 547.60272 371.96624ZM549.02209 389.05847a21.31773 21.31773 0 0 0-3.51732-6.48365 30.6912 30.6912 0 0 0-4.79608-4.92124 30.17165 30.17165 0 0 0-5.76435-3.73879l-.14647-.07034a2.84752 2.84752 0 0 0-3.497 4.27033l.0978.12967a30.14763 30.14763 0 0 0 4.8025 4.91379 30.71965 30.71965 0 0 0 5.77073 3.73126A21.34386 21.34386 0 0 0 549.02209 389.05847ZM550.24306 403.3091a25.51448 25.51448 0 0 0-5.03172-6.381 38.17273 38.17273 0 0 0-6.09252-4.66235 37.52227 37.52227 0 0 0-6.89431-3.36185l-.00043-.00015a2.86285 2.86285 0 0 0-2.93823 4.76253h0a37.49232 37.49232 0 0 0 6.09739 4.65422 38.18 38.18 0 0 0 6.89984 3.35351A25.50272 25.50272 0 0 0 550.24306 403.3091Z" class="color5f7d37 svgShape"></path>
  <path fill="#7d374b" d="M552.01726 415.66789a22.13636 22.13636 0 0 0-5.09537-5.53666 32.10789 32.10789 0 0 0-5.96859-3.71594 31.53151 31.53151 0 0 0-6.62971-2.338l-.00011 0a2.87563 2.87563 0 0 0-2.42036 5.04548h0a31.53737 31.53737 0 0 0 5.97334 3.70712 32.10336 32.10336 0 0 0 6.63377 2.32926A22.12722 22.12722 0 0 0 552.01726 415.66789ZM552.99863 425.49662a27.72816 27.72816 0 0 0-6.66429-5.27263 42.138 42.138 0 0 0-7.32877-3.36536 41.39243 41.39243 0 0 0-7.83029-1.9223l-.00044 0a2.85657 2.85657 0 0 0-1.83991 5.28491h0a41.41748 41.41748 0 0 0 7.33205 3.35628 42.14 42.14 0 0 0 7.83356 1.91312A27.72788 27.72788 0 0 0 552.99863 425.49662ZM531.69126 426.07554a2.8527 2.8527 0 0 0-.837 5.51332l.00017.00006a38.4361 38.4361 0 0 0 7.4585 1.90986 37.734 37.734 0 0 0 7.68688.399 25.38435 25.38435 0 0 0 7.9938-1.61657 25.38858 25.38858 0 0 0-7.15406-3.91579 37.74764 37.74764 0 0 0-7.4589-1.90052 38.434 38.434 0 0 0-7.68936-.38937Z" class="color5f7d37 svgShape"></path>
  <path fill="#ce6e8a" d="M556.74251,454.68385c-.30688-.60484-30.68151-60.80114-28.79764-85.016l-1.015-.07817c-1.90608,24.49867,27.64556,83.074,28.9047,85.55539Z" class="colorc4ce6e svgShape"></path>
  <path fill="#ce6e8a" d="M527.4681 370.99468a11.91122 11.91122 0 0 0 1.2861-4.413 15.89524 15.89524 0 0 0-.1385-4.17554 15.61938 15.61938 0 0 0-1.21732-3.99549l-.01876-.03958a2.0756 2.0756 0 0 0-3.92451.65444l-.0049.04347a15.62124 15.62124 0 0 0 .14524 4.17444 15.893 15.893 0 0 0 1.224 3.9944A11.91115 11.91115 0 0 0 527.4681 370.99468ZM529.54658 386.5246a8.1136 8.1136 0 0 0 4.30967-1.94175 10.67175 10.67175 0 0 0 2.77823-3.65129 9.74245 9.74245 0 0 0 .90146-4.62622l-.00294-.05293a2.05491 2.05491 0 0 0-3.85526-.79485q-.04165.07593-.08368.15151c-.59467 1.09089-1.07806 2.12207-1.5859 3.20065a36.91846 36.91846 0 0 0-1.387 3.4389A24.18516 24.18516 0 0 0 529.54658 386.5246ZM527.69417 376.75986a8.11348 8.11348 0 0 0 4.30967-1.94174 10.67163 10.67163 0 0 0 2.77823-3.65129 9.74248 9.74248 0 0 0 .90146-4.62622l-.00294-.05293a2.05491 2.05491 0 0 0-3.85526-.79485q-.04166.07592-.08368.15151c-.59467 1.09089-1.07806 2.12206-1.5859 3.20064a36.91868 36.91868 0 0 0-1.38705 3.43891A24.18655 24.18655 0 0 0 527.69417 376.75986ZM527.97865 379.44a12.59171 12.59171 0 0 0-1.47711-4.50674 17.11858 17.11858 0 0 0-2.53325-3.52122 16.81486 16.81486 0 0 0-3.33266-2.77531l-.08033-.04937a2.05673 2.05673 0 0 0-2.89041 2.69643l.0439.084a16.81334 16.81334 0 0 0 2.53843 3.51642 17.13994 17.13994 0 0 0 3.33742 2.77078A12.60067 12.60067 0 0 0 527.97865 379.44ZM533.402 399.71239a12.617 12.617 0 0 0 3.49274-3.21572 17.171 17.171 0 0 0 2.158-3.7688 16.86711 16.86711 0 0 0 1.14814-4.18763q.01034-.08107.02-.16239a2.03786 2.03786 0 0 0-3.617-1.49992q-.05073.06441-.10086.12906a16.86753 16.86753 0 0 0-2.15153 3.77138 17.17173 17.17173 0 0 0-1.14216 4.19044A12.60907 12.60907 0 0 0 533.402 399.71239ZM537.252 411.41293a13.97684 13.97684 0 0 0 3.52925-3.579 19.63548 19.63548 0 0 0 2.18285-4.10188 19.28356 19.28356 0 0 0 1.16339-4.49744l.01619-.13673a2.03739 2.03739 0 0 0-3.66779-1.424l-.08034.11187a19.29665 19.29665 0 0 0-2.176 4.10418 19.64041 19.64041 0 0 0-1.157 4.5A13.96846 13.96846 0 0 0 537.252 411.41293ZM541.55815 422.09668a15.97872 15.97872 0 0 0 3.96044-3.68549 23.22424 23.22424 0 0 0 2.65511-4.30527 22.81533 22.81533 0 0 0 1.66844-4.775l.02207-.10256a2.03689 2.03689 0 0 0-3.5722-1.69768l-.06552.08181a22.8267 22.8267 0 0 0-2.64944 4.30854 23.22792 23.22792 0 0 0-1.6619 4.77784A15.97924 15.97924 0 0 0 541.55815 422.09668ZM545.89179 432.80775a16.12069 16.12069 0 0 0 4.10731-3.56168 23.4754 23.4754 0 0 0 2.8261-4.22947 23.04877 23.04877 0 0 0 1.857-4.73522l.00006-.00023a2.05572 2.05572 0 0 0-3.54923-1.8511h0a23.07375 23.07375 0 0 0-2.82036 4.2329 23.49917 23.49917 0 0 0-1.85083 4.73836A16.12627 16.12627 0 0 0 545.89179 432.80775ZM549.71732 441.71566a17.77425 17.77425 0 0 0 4.58391-3.44051 26.45091 26.45091 0 0 0 3.36873-4.22179 25.97582 25.97582 0 0 0 2.44941-4.8132l.00008-.00022a2.04945 2.04945 0 0 0-3.367-2.1651h0a25.979 25.979 0 0 0-3.36328 4.22573 26.4533 26.4533 0 0 0-2.44351 4.8169A17.76279 17.76279 0 0 0 549.71732 441.71566ZM554.4817 451.37041a18.9346 18.9346 0 0 0 4.24675-4.13893 28.54014 28.54014 0 0 0 2.94908-4.774 28.02255 28.02255 0 0 0 1.96688-5.25449l.00007-.00029A2.04577 2.04577 0 0 0 560.049 435.443h0a28.00684 28.00684 0 0 0-2.943 4.77709 28.53471 28.53471 0 0 0-1.96077 5.25752A18.9366 18.9366 0 0 0 554.4817 451.37041ZM530.598 391.41516a15.2149 15.2149 0 0 0-2.339-4.72 21.85549 21.85549 0 0 0-3.29427-3.63595 21.47474 21.47474 0 0 0-4.01672-2.81592l-.10322-.05421a2.03706 2.03706 0 0 0-2.61031 2.96213l.06671.09552a21.47521 21.47521 0 0 0 3.29885 3.6308 21.85564 21.85564 0 0 0 4.0213 2.81076A15.21544 15.21544 0 0 0 530.598 391.41516ZM534.01881 402.55055a13.01959 13.01959 0 0 0-2.454-4.16136 17.8836 17.8836 0 0 0-3.28475-2.97887 17.56169 17.56169 0 0 0-3.91284-2.08446l-.04282-.01564a2.06649 2.06649 0 0 0-2.28708 3.25652l.02923.03494a17.55935 17.55935 0 0 0 3.28857 2.97334 17.88592 17.88592 0 0 0 3.91664 2.07887A13.01036 13.01036 0 0 0 534.01881 402.55055ZM537.73094 413.10563a14.50779 14.50779 0 0 0-3.2929-3.93478 20.59976 20.59976 0 0 0-3.9532-2.64979 20.20849 20.20849 0 0 0-4.453-1.67731h0a2.06378 2.06378 0 0 0-1.82938 3.56051h0a20.20261 20.20261 0 0 0 3.95618 2.64373 20.59418 20.59418 0 0 0 4.456 1.67129A14.49968 14.49968 0 0 0 537.73094 413.10563ZM542.36524 424.46628a15.25026 15.25026 0 0 0-3.791-3.67061 21.95566 21.95566 0 0 0-4.32863-2.33006 21.58451 21.58451 0 0 0-4.73586-1.31541l-.115-.0166a2.03706 2.03706 0 0 0-1.47084 3.66439l.09456.06752a21.567 21.567 0 0 0 4.33141 2.3236 21.976 21.976 0 0 0 4.7386 1.3089A15.26874 15.26874 0 0 0 542.36524 424.46628ZM546.25473 433.93016a18.2524 18.2524 0 0 0-4.80251-3.27577 27.308 27.308 0 0 0-5.1579-1.87534 26.84268 26.84268 0 0 0-5.42619-.81582h-.00033a2.048 2.048 0 0 0-.98389 3.88045h0a26.82158 26.82158 0 0 0 5.15948 1.86874 27.31288 27.31288 0 0 0 5.42817.80894A18.244 18.244 0 0 0 546.25473 433.93016Z" class="colorc4ce6e svgShape"></path>
  <path fill="#ce6e8a" d="M550.11606 441.98425a15.83617 15.83617 0 0 0-4.66487-2.68588 22.96906 22.96906 0 0 0-4.87035-1.256 22.55681 22.55681 0 0 0-5.026-.17379h-.00008a2.05717 2.05717 0 0 0-.56979 3.9625h0a22.56093 22.56093 0 0 0 4.8717 1.249 22.96639 22.96639 0 0 0 5.02693.167A15.82945 15.82945 0 0 0 550.11606 441.98425ZM552.89371 448.48167a19.83618 19.83618 0 0 0-5.679-2.16922 30.14541 30.14541 0 0 0-5.72346-.72505 29.61158 29.61158 0 0 0-5.75625.36738l-.00031 0a2.04354 2.04354 0 0 0-.12229 4.00142h0a29.62975 29.62975 0 0 0 5.72375.71814 30.14594 30.14594 0 0 0 5.75651-.37433A19.83587 19.83587 0 0 0 552.89371 448.48167ZM538.47607 453.44637a2.04076 2.04076 0 0 0 .61115 3.94222h.00013a27.497 27.497 0 0 0 5.49984-.29612 26.995 26.995 0 0 0 5.33169-1.37622 18.15956 18.15956 0 0 0 5.10889-2.81763 18.16238 18.16238 0 0 0-5.72226-1.13818 27.00317 27.00317 0 0 0-5.49811.30259 27.49432 27.49432 0 0 0-5.33132 1.38333Z" class="colorc4ce6e svgShape"></path>
  <path fill="#935063" d="M537.11448,475.34584H562.836l8.27487-43.9008a1.74489,1.74489,0,0,0-1.70271-2.07651H530.54232a1.7449,1.7449,0,0,0-1.70271,2.07651Z" class="color935b50 svgShape"></path>
  <path fill="#d64b73" d="M529.43743,434.6171l-.59792-3.172a1.7449,1.7449,0,0,1,1.70271-2.07653h38.86594a1.7449,1.7449,0,0,1,1.70271,2.07653l-.59792,3.172Z" class="colord6694b svgShape"></path>
  <polygon fill="#d64b73" points="560.78 462.913 566.213 457.428 560.78 451.944 555.346 457.428 560.78 462.913" class="colord6694b svgShape"></polygon>
  <polygon fill="#d64b73" points="549.913 462.913 555.346 457.428 549.913 451.944 544.479 457.428 549.913 462.913" class="colord6694b svgShape"></polygon>
  <polygon fill="#d64b73" points="539.171 462.913 544.605 457.428 539.171 451.944 533.738 457.428 539.171 462.913" class="colord6694b svgShape"></polygon>
  <path fill="#db7290" d="M488.19335,456.57871s16.91543-21.24244-38.55124-76.70891l5.11373-26.29094h0a11.95033,11.95033,0,0,0,3.64565-7.83965l.28838-4.42065s-.19688-2.36018-3.73715-2.1635c0,0-5.31061-13.88438-23.01277-8.37709l-8.53835-2.6829s-4.7205-.59007-4.13043,4.32718c0,0-4.58368,3.68341,1.18373,12.43168a17.3468,17.3468,0,0,0,3.28784,3.597c2.02429,1.72512,4.916,4.48989,2.64224,12.77867-.99515,3.6277-2.0227,7.24642-2.85015,10.916l-2.80617,12.44475s-12.19477,12.78484,1.18014,36.58431c0,0-6.59595,41.17444-12.89,47.86189,0,0-11.04322,2.5401-8.115,6.86407a.79087.79087,0,0,0,.65389.329H411.377a2.4586,2.4586,0,0,0,2.0979-1.17657l8.23721-15.7206s2.95034-1.37683,2.75365-7.27753l5.704-19.2756s-1.57292,31.66587-6.09679,34.81291-7.59694,6.29526-6.81018,8.65554h10.62839a2.45861,2.45861,0,0,0,2.32867-1.66988l2.31019-8.95137s1.9669,1.18014,2.557-7.47421l5.31062-18.29216,2.557,1.37683s-.73641,3.86614,8.65568,16.40747a11.12193,11.12193,0,0,1,2.16594,5.0779c.65155,4.6241-1.55982,11.28315-22.38435,6.5503l-1.77021,6.49077s7.71054-.4661,25.01925.51735c0,0-11.68631-8.68735-10.30948-.033l30.63606.09806a2.45858,2.45858,0,0,0,1.92844-1.05455l4.21649-7.30448s42.485,14.94843,51.92612-7.08083c0,0,1.18014-6.68746-10.22787.78676S495.66764,464.44622,488.19335,456.57871Z" class="colordba972 svgShape"></path>
  <path fill="#db7290" d="M421.9088,421.17463s-6.59595,41.17444-12.89,47.86189c0,0-11.04322,2.5401-8.115,6.86407a.79087.79087,0,0,0,.65389.329H411.377a2.4586,2.4586,0,0,0,2.0979-1.17657l8.23721-15.7206s2.95034-1.37683,2.75365-7.27753l5.704-19.2756Z" class="colordba972 svgShape"></path>
  <path fill="#040001" d="M439.68947,339.03187a19.26236,19.26236,0,0,0-.37036-1.91382,4.46113,4.46113,0,0,0-.7168-1.61475,2.03142,2.03142,0,0,0-1.405-.78686,4.9147,4.9147,0,0,0-.91919-.06006c-.32154.00512-.6399.06714-.98682.0664a8.22065,8.22065,0,0,1,.91113-.46093,3.44156,3.44156,0,0,1,1.04-.18335,2.37574,2.37574,0,0,1,2.00415.91894,3.74524,3.74524,0,0,1,.70142,2.0188A4.9907,4.9907,0,0,1,439.68947,339.03187Z" class="color040000 svgShape"></path>
  <path fill="#542e39" d="M450.56,374.4608l-.0983,5.409s-23.20945,5.21225-29.8969,4.72052l-3.147,1.57352s-1.47517-.8851-2.16359-5.01559c0,0,4.03215-2.45862,5.50732-1.86855Z" class="color54412e svgShape"></path>
  <path fill="#bc5573" d="M422.29934 340.22254a12.911 12.911 0 0 1-1.36524-1.6355 14.54009 14.54009 0 0 1-1.124-1.824 10.289 10.289 0 0 1-.79419-2.01514 5.64593 5.64593 0 0 1-.17432-2.20117l.002-.01392a.26481.26481 0 0 1 .52563.064 8.882 8.882 0 0 1-.4624 2.04541 3.13713 3.13713 0 0 1-.49707.93847.91333.91333 0 0 1-.9292.41285.87073.87073 0 0 0 .76391-.5254 4.234 4.234 0 0 0 .33277-.927 11.65965 11.65965 0 0 0 .26294-1.98071l.52759.05a8.47571 8.47571 0 0 0 .92041 3.92309c.29028.62867.59057 1.26026.9375 1.8689C421.57351 339.01014 421.92019 339.62317 422.29934 340.22254ZM449.3572 337.26209a23.5346 23.5346 0 0 0-1.24976 2.97827 22.265 22.265 0 0 0-.88159 3.08911 18.57786 18.57786 0 0 0-.34546 6.34131 14.36559 14.36559 0 0 0 .719 3.08569 12.92906 12.92906 0 0 0 .62452 1.45923 2.54775 2.54775 0 0 0 .87353 1.19165 2.27407 2.27407 0 0 0 1.39331.43286 4.37674 4.37674 0 0 0 1.49121-.40673 11.01381 11.01381 0 0 0 2.686-1.74781 10.03728 10.03728 0 0 1-2.562 2.00928 4.587 4.587 0 0 1-1.595.51782 2.69024 2.69024 0 0 1-1.66968-.43017 2.79329 2.79329 0 0 1-1.07276-1.33618 13.47892 13.47892 0 0 1-.67358-1.50489 14.79907 14.79907 0 0 1-.79956-3.197 17.96816 17.96816 0 0 1 .49072-6.51953A20.623 20.623 0 0 1 449.3572 337.26209ZM430.6614 427.2721c-.03174 1.84741-.14209 3.688-.2522 5.52856l-.0105.17579-.14233.02709a2.47861 2.47861 0 0 1-1.93677-.61425 8.88325 8.88325 0 0 1-1.37109-1.31983 18.03386 18.03386 0 0 1-2.09082-3.09887 29.1043 29.1043 0 0 1-1.6294-3.33619c-.50854-1.12646-.91089-2.29687-1.31958-3.45971l1.65039 3.30395c.26929.552.56055 1.0918.863 1.62476.2854.54248.58008 1.07788.89648 1.60034a23.12191 23.12191 0 0 0 2.064 2.99609 8.37614 8.37614 0 0 0 1.25635 1.2649 4.38917 4.38917 0 0 0 .73217.44653 1.57832 1.57832 0 0 0 .71192.1438l-.15283.20288C430.14821 430.92688 430.3655 429.09607 430.6614 427.2721ZM443.15139 428.944c-.35987 1.84424-.75855 3.679-1.17871 5.50806-.39991 1.83423-.86353 3.65234-1.303 5.47656l-.1648-.32763c2.28491.91284 4.51465 1.947 6.74536 2.98266 1.10425.542 2.20264 1.09644 3.28394 1.68628.543.2898 1.06982.61231 1.59155.94019a6.52983 6.52983 0 0 1 1.4502 1.14087 15.71657 15.71657 0 0 0-3.18482-1.80225c-1.10254-.53174-2.22314-1.02905-3.34912-1.51318-2.22925-1.01807-4.50561-1.93677-6.75146-2.916l-.22559-.09839.06055-.22973c.47851-1.81446.93286-3.635 1.45068-5.43946C442.074 432.54236 442.593 430.73816 443.15139 428.944ZM476.78518 437.64734a31.86444 31.86444 0 0 0-6.23633-3.32763 17.546 17.546 0 0 0-6.832-1.40088 8.15359 8.15359 0 0 0-6.06372 2.82934 14.24541 14.24541 0 0 0-2.82569 6.28809c-.09839.563-.26269 1.18066-.30713 1.69849a10.44936 10.44936 0 0 0 .09229 1.71679 29.359 29.359 0 0 0 .667 3.44336 63.09277 63.09277 0 0 0 2.18579 6.7146c1.688 4.40625 3.70606 8.6853 5.65332 12.99927l.073.16186-.17163.0232-7.18213.96313 7.14258-1.22192-.09863.18481c-2.04053-4.26464-4.18946-8.49389-5.90162-12.92334a63.69421 63.69421 0 0 1-2.25073-6.76025 29.134 29.134 0 0 1-.7019-3.51489 10.93727 10.93727 0 0 1-.0835-1.82251c.06616-.65943.22437-1.18872.332-1.78907a14.767 14.767 0 0 1 2.98584-6.50146 8.51293 8.51293 0 0 1 2.90625-2.16748 8.929 8.929 0 0 1 3.53711-.73755 17.38008 17.38008 0 0 1 6.94068 1.5813A31.98938 31.98938 0 0 1 476.78518 437.64734ZM482.39089 464.44642a4.32275 4.32275 0 0 1-.10693.96191 6.41864 6.41864 0 0 1-.25489.90845 6.34666 6.34666 0 0 1-.38354.86206 4.27877 4.27877 0 0 1-.53321.80786 4.29687 4.29687 0 0 1 .10621-.96216 6.34394 6.34394 0 0 1 .25561-.9082 6.40833 6.40833 0 0 1 .38452-.86157A4.33239 4.33239 0 0 1 482.39089 464.44642ZM448.06862 476.08558a1.37489 1.37489 0 0 1-.63281-.4961 1.75634 1.75634 0 0 1-.2749-1.57177 1.50832 1.50832 0 0 1 .416-.6858c.02784.2771.01148.51319.03443.74439a5.8016 5.8016 0 0 0 .07934.65771 5.97742 5.97742 0 0 0 .14673.6482C447.89968 475.60511 447.9822 475.82679 448.06862 476.08558ZM418.4424 476.08558a1.18156 1.18156 0 0 1-.40967-.44849 1.37775 1.37775 0 0 1-.1809-.57422 1.16746 1.16746 0 0 1 .10937-.62524.74569.74569 0 0 1 .4812-.41724 2.50544 2.50544 0 0 0-.0415.53027l.03882.46143c.00488.15845.031.3208.0271.49878A3.28887 3.28887 0 0 1 418.4424 476.08558ZM403.51271 476.11731a.93486.93486 0 0 1-.51025-.36181 1.06427 1.06427 0 0 1-.2185-.61841.9728.9728 0 0 1 .20434-.63721.9014.9014 0 0 1 .52441-.34936c-.03613.22046-.09619.38257-.11328.54248a2.1 2.1 0 0 0-.02563.42871 3.67541 3.67541 0 0 0 .03906.44458C403.438 475.72986 403.47854 475.90247 403.51271 476.11731ZM435.08693 454.77259a53.78571 53.78571 0 0 1-.11328 7.09619l-.00171.02466-.00268.01074a6.42911 6.42911 0 0 1-.83472 2.05908 2.7359 2.7359 0 0 1-.75415.83228 1.52608 1.52608 0 0 1-1.05029.30322 2.09642 2.09642 0 0 0 1.47827-1.31982 8.218 8.218 0 0 0 .60937-1.97632l-.00415.03515A53.78505 53.78505 0 0 1 435.08693 454.77259Z" class="colorbc8855 svgShape"></path>
  <ellipse cx="437.43" cy="335.95" fill="#040001" rx="1.282" ry=".937" transform="rotate(-72.151 437.43 335.95)" class="color040000 svgShape"></ellipse>
  <ellipse cx="422.299" cy="329.128" fill="#542e39" rx="1.991" ry="1.574" class="color54412e svgShape"></ellipse>
  <circle cx="414.112" cy="389.887" r="4.522" fill="#f9356d" class="colorf9c035 svgShape"></circle>
  <path fill="#f97a9e" d="M236.69415,431.013l-23.70858-12.63547s-9.965,11.86889,2.55436,25.95l14.61414,5.81716Z" class="colorf9977a svgShape"></path>
  <path fill="#ff5586" d="M225.52244,425.10926s-10.74986-15.85078-21.12824-12.1146a3.68742,3.68742,0,0,0-2.26093,2.40742l-17.21554,56.7903a1.93462,1.93462,0,0,0,1.50319,2.4586c3.03764.58241,8.773.853,12.92635-3.93913,5.90534-6.81372,1.38528-14.33963,16.75869-23.99368C216.106,446.71817,216.47587,428.15959,225.52244,425.10926Z" class="colorffba55 svgShape"></path>
  <path fill="#923751" d="M300.36732,474.995c41.29737-.03186,13.83655-38.38,13.72609-38.6034,0,0-40.90865-84.12424-41.29949-84.67772-13.92458-19.71946-32.959-12.26825-33.13389-12.16567-22.94594,13.46063-27.58889,32.93643-15.63168,50.26592.11022.15974-1.89638,1.43542-1.67531,1.74827,12.13126,17.1676,37.8779,35.6164,54.84716,48.02358l-42.27638-10.7867-9.0074,20.5916C230.9223,451.33309,299.94868,474.99533,300.36732,474.995Z" class="color376f92 svgShape"></path>
  <polygon fill="#4f1022" points="275.781 411.117 283.667 422.34 291.507 433.595 307.157 456.127 307.51 456.634 306.903 456.511 287.605 452.603 268.32 448.628 249.035 444.652 229.768 440.586 249.094 444.36 268.401 448.226 287.709 452.091 307.002 456.024 306.748 456.409 291.227 433.789 283.481 422.469 275.781 411.117" class="color10394f svgShape"></polygon>
  <path fill="#923751" d="M360.13414,399.68315c15.71857-19.06839-3.34379-34.725-20.209-37.804q-.37426-.06834-.74361-.1264s-94.96529-10.69051-95.64286-10.69071c-24.14024-.007-29.01746,19.84119-29.05592,20.04025-5.19043,26.86644,10.97888,41.53817,32.03194,41.7728.19406.00216.48894.00325.872.00323a194.04442,194.04442,0,0,0,61.82655-10.13419l14.91574-5.01491L299.56983,431.273l21.358,12.34545C325.40274,440.65084,358.88829,401.1945,360.13414,399.68315Z" class="color376f92 svgShape"></path>
  <path fill="#f97a9e" d="M299.6377,431.31822l-14.94022,20.76037s10.43074,9.51591,26.69746.00773l7.91155-9.39906Z" class="colorf9977a svgShape"></path>
  <path fill="#ff5586" d="M284.69748,448.84454s-14.05557,17.69286-4.511,26.018l67.10166.01943s5.45819-9.54541-2.86032-13.02422-8.11648,5.31812-32.28614-10.81647C312.14168,451.04128,290.42346,456.48379,284.69748,448.84454Z" class="colorffba55 svgShape"></path>
  <path fill="#4f1022" d="M213.54836,382.71058l23.68872-.13062,23.68872-.043,47.37744-.08105,23.68872.05322c.99121.01294,1.96436-.01929,2.97071.03052a7.00735,7.00735,0,0,1,2.93237.76391,6.90038,6.90038,0,0,1,2.3457,1.91529,6.98394,6.98394,0,0,1,1.36865,2.69726,7.107,7.107,0,0,1-.95507,5.82813c-1.125,1.63843-2.28955,3.22094-3.43213,4.83423l-13.77613,19.271-13.84838,19.21973,13.6228-19.38013,13.69531-19.32861c1.13257-1.61255,2.30249-3.217,3.4043-4.83618a6.69182,6.69182,0,0,0,.88037-5.49707,6.55959,6.55959,0,0,0-1.29907-2.53516,6.46237,6.46237,0,0,0-2.2085-1.78906c-1.7102-.936-3.73022-.69068-5.70117-.72241l-23.68872.03979-47.3772-.10864-23.68872-.05664Z" class="color10394f svgShape"></path>
  <path fill="#4f1022" d="M242.38723 412.63685c4.90576.21752 9.81567.123 14.71362-.0962 4.8977-.23437 9.791-.59423 14.65576-1.20727q7.30554-.832 14.53247-2.23755c4.8252-.8833 9.58911-2.06177 14.34473-3.28638-2.35962.67285-4.69751 1.439-7.08081 2.03638-2.38257.60034-4.76734 1.19653-7.17847 1.67676-4.8064 1.03589-9.67334 1.77173-14.55224 2.37207-4.88379.56763-9.79151.937-14.70508 1.07886-2.45679.07177-4.915.08081-7.37183.05029C247.28908 412.95228 244.83327 412.85437 242.38723 412.63685ZM306.79982 421.39808c-1.16235 1.677-2.29736 3.374-3.48217 5.03442-1.18238 1.6626-2.34278 3.34082-3.54761 4.98682l-.07593-.36109 5.35645 3.05664 5.323 3.11524c1.77955 1.02929 3.53321 2.10351 5.29786 3.1582 1.76806 1.04932 3.50317 2.15527 5.25634 3.23-1.80639-.98267-3.63086-1.93408-5.42236-2.94263-1.79492-1.00268-3.60107-1.98608-5.3811-3.0144l-5.3562-3.05762-5.32227-3.116-.23853-.13965.16236-.22168c1.20532-1.64575 2.45483-3.259 3.68237-4.88819C304.27736 424.60706 305.55227 423.01258 306.79982 421.39808ZM248.322 382.72059a29.56624 29.56624 0 0 0 1.721-4.69971 28.76473 28.76473 0 0 0 .97583-4.88648 19.04359 19.04359 0 0 0-1.21753-9.71411 16.48834 16.48834 0 0 0-6.40845-7.33056 32.01072 32.01072 0 0 0-9.15845-3.90284 28.64237 28.64237 0 0 1 9.39234 3.53589 16.282 16.282 0 0 1 3.91333 3.21753 15.53122 15.53122 0 0 1 2.78 4.25635 19.05856 19.05856 0 0 1 1.12866 9.99072A28.57576 28.57576 0 0 1 248.322 382.72059Z" class="color10394f svgShape"></path>
  <path fill="#f97a9e" d="M289.90339,388.02092s5.83291-.25055,15.7664,7.94305,16.87754,15.70051,8.74139,11.67541l-6.14923-3.16994s4.513,9.31755,7.68766,14.63287a7.66664,7.66664,0,0,1-.75623,9.09112c-2.08051,2.26907-4.54522,2.40606-9.37773-2.99317C298.588,417.125,295.71926,412.939,294.5182,410.42282c-.41609-.8717-2.53565-3.92926-2.53565-3.92926Z" class="colorf9977a svgShape"></path>
  <path fill="#ff3c74" d="M305.08718 399.06287a10.13892 10.13892 0 0 1 1.99219 2.46314 8.95889 8.95889 0 0 1 1.18261 2.94336 15.02818 15.02818 0 0 1-1.86011-2.5398A12.86962 12.86962 0 0 1 305.08718 399.06287ZM307.94924 412.20789c.77978 1.03345 1.51269 2.08789 2.24853 3.13892l2.19312 3.15307q1.08618 1.57984 2.20727 3.13233c.7522 1.03247 1.5232 2.04785 2.35035 3.04345a17.777 17.777 0 0 1-2.824-2.66406 32.80065 32.80065 0 0 1-2.38159-3.06225c-.73071-1.06543-1.42871-2.15186-2.05615-3.28028A32.71089 32.71089 0 0 1 307.94924 412.20789ZM305.18044 414.8368l2.25366 3.57275c.75855 1.18018 1.50952 2.36035 2.29981 3.51074.77148 1.16431 1.60473 2.28052 2.47216 3.36524a18.48657 18.48657 0 0 0 1.3877 1.55346l.75879.71924c.28.20288.55981.41358.84082.63526a10.01087 10.01087 0 0 1-3.43945-2.50342 23.92533 23.92533 0 0 1-2.67188-3.32617 35.73824 35.73824 0 0 1-2.17139-3.65284A31.43963 31.43963 0 0 1 305.18044 414.8368ZM303.19216 417.89954c1.30884 1.97461 2.541 3.95459 3.84277 5.89185 1.294 1.94555 2.65381 3.81714 4.12915 5.67114a20.94176 20.94176 0 0 1-4.78442-5.23242A27.54128 27.54128 0 0 1 303.19216 417.89954Z" class="colordd765e svgShape"></path>
  <path fill="#f97a9e" d="M359.20882,335.12118s5.75429.98678,16.64493-5.88368,18.729-13.43813,10.1488-10.47516l-6.501,2.36616s5.656-8.67142,9.47785-13.5422a7.66662,7.66662,0,0,0,.40049-9.11372c-1.77659-2.51414-4.20414-2.962-9.68115,1.78221-8.19163,7.09558-11.56706,10.88481-13.07692,13.22873-.52308.812-3.01257,3.57673-3.01257,3.57673Z" class="colorf9977a svgShape"></path>
  <path fill="#ff3c74" d="M375.668 326.08973a12.884 12.884 0 0 1 1.667-2.67725 15.03845 15.03845 0 0 1 2.1665-2.28394 8.9581 8.9581 0 0 1-1.54565 2.77A10.13075 10.13075 0 0 1 375.668 326.08973ZM380.17067 313.41272a32.7273 32.7273 0 0 1 2.16187-3.21337c.76514-1.04 1.595-2.0293 2.45483-2.99366a32.74917 32.74917 0 0 1 2.74976-2.73608 17.78085 17.78085 0 0 1 3.13843-2.2854c-.94629.88306-1.8396 1.79248-2.71656 2.72143q-1.3059 1.40113-2.58593 2.82789l-2.57447 2.85009C381.93557 311.53284 381.075 312.48621 380.17067 313.41272ZM377.75686 310.45447a31.44478 31.44478 0 0 1 2.20678-3.624 35.711 35.711 0 0 1 2.61621-3.34863 23.93447 23.93447 0 0 1 3.07129-2.96143 10.01127 10.01127 0 0 1 3.72876-2.04785c-.30688.18433-.61084.35791-.9143.52392l-.84375.61719a18.46249 18.46249 0 0 0-1.57325 1.36548c-.9978.96607-1.96557 1.96777-2.87817 3.02515-.92969 1.041-1.82373 2.1167-2.72583 3.1914ZM376.17238 307.16492a27.517 27.517 0 0 1 3.96314-5.87622 20.93693 20.93693 0 0 1 5.4082-4.585c-1.69824 1.65234-3.28393 3.33667-4.81372 5.10278C379.19362 303.5636 377.72072 305.37171 376.17238 307.16492Z" class="colordd765e svgShape"></path>
  <path fill="#b0234b" d="M233.68483,357.71619a45.342,45.342,0,0,0,1.22486,4.56348,28.2635,28.2635,0,0,0,1.77319,4.29468,18.33989,18.33989,0,0,0,2.62524,3.7644,14.99913,14.99913,0,0,0,3.73926,2.76562,10.27141,10.27141,0,0,1-4.27954-2.20263,14.34022,14.34022,0,0,1-2.97021-3.86353,19.18017,19.18017,0,0,1-1.63745-4.55249A18.2132,18.2132,0,0,1,233.68483,357.71619Z" class="colorb02336 svgShape"></path>
  <path fill="#f97a9e" d="M280.79013,226.90085a24.73182,24.73182,0,0,1,11.55194.99018c1.74256.61785,8.11583,2.87749,11.22222,8.91159,1.17983,2.29162,1.44642,5.04838,1.98027,10.56189.3334,3.44383,1.65975,5.91034,1.65774,10.11065a35.48519,35.48519,0,0,1-1.65774,10.02295c-1.54449,5.07766-.55,7.96245-1.32018,8.91159-3.104,3.82529-12.52743.8239-12.669,5.81553-.08739,3.0822,2.2653,3.65625,2.06572,7.26306-.25874,4.67588-15.3092,2.13082-19.7623-.20628-.607-.3186-6.12817-3.9336-5.52683-9.385.32131-2.91221,2.7938-16.57692,2.55642-18.34-.85852-6.37246-4.06967-7.1496-6.60125-14.85266a11.98179,11.98179,0,0,1,1.98032-11.55206A24.47445,24.47445,0,0,1,280.79013,226.90085Z" class="colorf9977a svgShape"></path>
  <path fill="#ff5586" d="M268.77069,277.50265s-47.41309,18.51367-41.09131,59.15357L219.13714,362.039l9.44532-.0957s.45,8.79323,22.8401,23.94415c6.08148,4.11521,12.36764,8.66879,19.16242,11.45274l18.80343,10.08892a4,4,0,0,0,4.2897-.81875l9.19281-8.84377a4.0018,4.0018,0,0,0-.4778-6.15676,132.73373,132.73373,0,0,1-30.58825-30.116,39.3853,39.3853,0,0,0,30.94556-3.08227l1.39209-5.80054s17.46,16.55713,37.32836,6.6228a78.61606,78.61606,0,0,0,28.73921-24.54661,2.98245,2.98245,0,0,0,.48924-2.20618,34.48952,34.48952,0,0,0-7.20042-15.49448,2.9933,2.9933,0,0,0-3.78242-.6722l-29.95764,17.03741-7.88562-19.76271a54.76946,54.76946,0,0,0-19.74233-22.85922L291.8,283.97506Z" class="colorffba55 svgShape"></path>
  <path fill="#e62a60" d="M304.14235,352.61121c.282-1.72583.55616-3.44775.74952-5.1814.23291-1.72631.42456-3.45776.56469-5.19213.2854-3.46705.47827-6.93775.46265-10.40894a84.93139,84.93139,0,0,0-.71777-10.36963,49.40223,49.40223,0,0,0-1.03833-5.09424,48.0729,48.0729,0,0,0-1.52588-4.9956,39.3739,39.3739,0,0,1,3.32275,9.96191,62.73948,62.73948,0,0,1,.95874,10.49268,79.907,79.907,0,0,1-.70117,10.4978A71.001,71.001,0,0,1,304.14235,352.61121Z" class="colore6952a svgShape"></path>
  <ellipse cx="304.219" cy="252.769" fill="#0a0708" rx="1.294" ry="1.609" class="color0a0709 svgShape"></ellipse>
  <ellipse cx="292.553" cy="252.769" fill="#0a0708" rx="1.294" ry="1.609" class="color0a0709 svgShape"></ellipse>
  <path fill="#221d1e" d="M298.065 249.88758a.81634.81634 0 0 1-.44531-1.501 8.66315 8.66315 0 0 1 9.68262.0332.81631.81631 0 0 1-.98145 1.30469h0a6.91356 6.91356 0 0 0-7.8125.03125A.80413.80413 0 0 1 298.065 249.88758ZM285.97414 249.88758a.81634.81634 0 0 1-.44531-1.501 8.66361 8.66361 0 0 1 9.68262.0332.81631.81631 0 0 1-.98145 1.30469h0a6.91485 6.91485 0 0 0-7.8125.03125A.80413.80413 0 0 1 285.97414 249.88758Z" class="color1e1d22 svgShape"></path>
  <path fill="#ff3c74" d="M296.95363 250.22083a7.3016 7.3016 0 0 0 .70655 3.89746 16.25054 16.25054 0 0 0 2.03 3.44312l.65332.77832a1.58624 1.58624 0 0 1 .4187 1.08984 2.59466 2.59466 0 0 1-1.09912 1.87476 4.683 4.683 0 0 1-4.02759.51049 7.03225 7.03225 0 0 0 2.0105-.05712 3.529 3.529 0 0 0 1.7517-.77735 2.3297 2.3297 0 0 0 .86915-1.55615c.04223-.54688-.57544-.96338-.99878-1.52a14.82021 14.82021 0 0 1-1.98951-3.61792A6.40761 6.40761 0 0 1 296.95363 250.22083ZM275.752 250.76526a4.91861 4.91861 0 0 0-1.23926.61255 7.51329 7.51329 0 0 0-1.03466.86475 12.9703 12.9703 0 0 0-.91382 1.01733c-.29175.36011-.55884.74243-.86865 1.11841.05224-.23682.13745-.46118.20727-.6958l.31323-.65527a5.0964 5.0964 0 0 1 .88013-1.17212 4.11551 4.11551 0 0 1 1.21631-.843A2.62875 2.62875 0 0 1 275.752 250.76526Z" class="colordd765e svgShape"></path>
  <path fill="#ff3c74" d="M274.701,257.47522a10.19837,10.19837,0,0,0-.03321-2.98828,8.27106,8.27106,0,0,0-.35962-1.42749c-.14868-.47632-.37817-.9209-.58422-1.40527a4.349,4.349,0,0,1,.96777,1.23706,4.63786,4.63786,0,0,1,.51318,1.50781,4.85086,4.85086,0,0,1,.00611,1.59058A4.03432,4.03432,0,0,1,274.701,257.47522Z" class="colordd765e svgShape"></path>
  <path fill="#221d1e" d="M282.616,263.472s-2.14342-9.25328-1.75105-11.90246c.5471-3.69151.82069-5.53715.37858-7.03941-.70759-2.40458.46422-2.71769,1.97131-5.30185,1.41446-2.42535,5.79683-.46209,6.89046-.86634,3.0694-1.13473,2.95589-2.42717,5.03106-2.55621,2.12831-.13233,3.69017-.6946,5.06506.67856,1.40216,1.40158,3.97529,5.12719,4.60978,4.48085a12.12791,12.12791,0,0,0,2.37357-6.11417,13.44357,13.44357,0,0,0-1.50723-6.28267c-.50379-1.121-2.37983-5.293-6.286-6.40684-2.24978-.6416-2.68143.44191-7.54806.72994-5.04768.2989-5.20437-.82974-7.84784-.07842-2.92618.83183-2.81489,2.2369-7.81549,4.96849A51.7797,51.7797,0,0,1,271.075,230.135c-6.27791,2.65843-7.09893,2.23336-8.54276,3.62857-3.11272,3.008-2.60445,8.17993-2.4817,9.42919.346,3.51839,1.71969,4.57569,4.70755,10.2118,4.73107,8.92558,3.78172,12.67611,5.51566,13.9276.8506.61394,5.33839-2.57631,5.3176-4.14833-.027-2.06072-1.51173-2.711-3.2603-5.68946-1.22122-2.08161-2.9754-5.07018-1.96576-7.77932.611-1.63763,1.29265-1.18965,2.98946-1.03232,2.3029.21352,3.4358,3.42142,4.35918,5.77577a12.602,12.602,0,0,1,.84206,5.35834C278.31208,263.89092,283.40934,265.094,282.616,263.472Z" class="color1e1d22 svgShape"></path>
  <path fill="#0a0708" d="M292.94949,267.50111s5.096,4.753,9.65295,0" class="color0a0709 svgShape"></path>
  <path fill="#935063" d="M268.77077,277.50273s-.90311,12.94454,13.77239,19.11577l3.08561-4.2145,2.40829,4.2145s6.47227-6.32175,3.76295-12.6435Z" class="color935b50 svgShape"></path>
  <path fill="#f97a9e" d="M268.77077,277.50273s8.88056,13.09505,16.858,14.90127c0,0,5.26813-5.11761,6.17124-8.429l-6.52244-3.51209Z" class="colorf9977a svgShape"></path>
  <path fill="#e62a60" d="M262.90065 323.41077q.18714 3.59692.28247 7.19385c.04761 2.39819.1377 4.79614.1504 7.19409l.05737 7.19409c.01977 2.398-.02759 4.7959-.03809 7.19385l-.115-.30127q3.83569 4.303 7.57935 8.688 3.77929 4.35351 7.45215 8.802-4.00086-4.15539-7.91651-8.38672-3.92834-4.2202-7.7893-8.50024l-.11451-.12769-.00073-.17407c-.01025-2.39795-.05786-4.7959-.03784-7.19385l.05713-7.19409c.01269-2.398.103-4.7959.15063-7.19409Q262.71121 327.00769 262.90065 323.41077ZM227.67946 336.65638c.08277 2.124.094 4.239.115 6.35327l.0481 6.33325c.00635 2.10938.06006 4.21436.11377 6.31934.03247 1.05249.09155 2.10205.18921 3.14941.02661.5271.10888 1.0437.16113 1.57031.06421.5232.19409 1.03125.27588 1.56128a22.34086 22.34086 0 0 1-1.39331-6.22485c-.23657-2.11743-.31714-4.24439-.34619-6.36743.00049-2.12329.03784-4.24561.186-6.36255C227.16823 340.87171 227.35036 338.75745 227.67946 336.65638ZM285.62868 292.40394c1.05493 5.84082 1.71045 11.74975 2.18042 17.66821.47778 5.92041.64038 11.8623.67554 17.80224-.02661 5.94019-.25879 11.88306-.79419 17.79957a161.51489 161.51489 0 0 1-2.51514 17.62475l.53614-4.41577.27783-2.20435.1997-2.21338.438-4.41943.29639-4.43091c.21045-2.95141.314-5.9104.448-8.86572.063-2.95874.14917-5.9165.11426-8.87622.04858-5.91821-.12818-11.83789-.44068-17.751q-.22924-4.43555-.58813-8.865C286.24147 298.30164 285.95241 295.35291 285.62868 292.40394ZM315.69655 349.76722a35.36245 35.36245 0 0 0 4.82178 3.228 25.78447 25.78447 0 0 0 5.25806 2.22486 17.40423 17.40423 0 0 0 5.60986.69311l1.425-.09961 1.40674-.27685c.23608-.04566.478-.07569.71142-.13477l.68677-.22632c.45752-.15576.9231-.30078 1.39673-.44043a13.66305 13.66305 0 0 1-5.563 1.95581 15.08744 15.08744 0 0 1-5.94849-.51025 20.31577 20.31577 0 0 1-5.38647-2.521A20.09324 20.09324 0 0 1 315.69655 349.76722ZM234.551 356.2865a35.36372 35.36372 0 0 0 1.29419 5.6565 25.79961 25.79961 0 0 0 2.29981 5.22558 17.4092 17.4092 0 0 0 3.60644 4.35279l1.10523.905 1.21362.76342c.20313.12867.39966.27295.61011.3899l.655.30639c.4397.20069.87793.41431 1.31836.6377a13.664 13.664 0 0 1-5.38941-2.39282 15.09125 15.09125 0 0 1-3.97851-4.45166 20.32051 20.32051 0 0 1-2.18994-5.52954A20.08763 20.08763 0 0 1 234.551 356.2865Z" class="colore6952a svgShape"></path>
  <path fill="#ff3c74" d="M293.6382,279.53977s-9.96628-.52238-11.76621-4.96232c0,0,.45668,6.26309,9.928,9.39761a4.97034,4.97034,0,0,1-.147-2.46434A5.2271,5.2271,0,0,1,293.6382,279.53977Z" class="colordd765e svgShape"></path>
  <path fill="#923751" d="M313.64083,358.90263,335.8689,361.402S318.60653,372.5784,313.64083,358.90263Z" class="color376f92 svgShape"></path>
  <rect width="500" height="2" x="100" y="474.346" fill="#935063" class="color935b50 svgShape"></rect>
</svg>
